<ttFont>
          <CharString index="0">
            158 245 rmoveto
            106 63 67 76 39 38 -13 -37 39 vhcurveto
            -232 vlineto
            -44 -38 -41 -22 -44 hhcurveto
            -83 -49 63 112 hvcurveto
            -102 -1 rmoveto
            -162 85 -94 125 58 57 33 39 39 vhcurveto
            3 hlineto
            return
          </CharString>
          <CharString index="1">
            300 -12 rmoveto
            150 105 131 211 210 -105 76 callsubr
            -150 -105 -126 -211 -211 105 -131 150 hvcurveto
            87 vmoveto
            -91 -61 100 155 155 61 95 91 91 61 -95 -155 -155 -61 -100 -91 hvcurveto
            return
          </CharString>
          <CharString index="2">
            -335 hlineto
            -58 -48 -38 -23 -51 hhcurveto
            -74 -28 40 86 hvcurveto
            290 -99 -303 vlineto
            -128 52 -70 115 74 55 38 55 48 vhcurveto
            4 hlineto
            return
          </CharString>
          <CharString index="3">
            -246 -19 -99 -53 -110 vvcurveto
            96 7 rmoveto
            59 57 38 192 15 vhcurveto
            -116 vlineto
            -41 -50 -50 -24 -52 hhcurveto
            -53 -44 20 49 hvcurveto
            return
          </CharString>
          <CharString index="4">
            -9 -53 rlineto
            -3 hlineto
            41 -41 -48 24 -56 hhcurveto
            -117 -104 -97 -152 -151 85 -94 125 57 59 29 37 36 hvcurveto
            -2 -89 rlineto
            -70 -3 -48 -47 -88 hhcurveto
            -46 -56 13 30 -49 hvcurveto
            164 178 rmoveto
            -81 -52 63 102 99 65 66 74 40 38 -13 -37 39 hvcurveto
            -213 vlineto
            -45 -39 -41 -22 -43 hhcurveto
            return
          </CharString>
          <CharString index="5">
            51 326 rmoveto
            -215 122 -123 166 84 71 35 42 43 vhcurveto
            282 -213 -82 121 -156 vlineto
            -21 -22 -38 -13 -40 hhcurveto
            -123 -68 97 157 155 77 96 113 60 37 -24 -33 31 hvcurveto
            56 63 rlineto
            40 -39 -58 41 -87 hhcurveto
            -169 -124 -127 -214 hvcurveto
            return
          </CharString>
          <CharString index="6">
            100 vstem
            67 64 rmoveto
            -41 60 86 -35 93 hhcurveto
            144 80 67 82 77 -69 38 -122 31 hvcurveto
            -84 21 -59 22 37 vvcurveto
            35 28 27 83 58 51 -21 -29 44 vhcurveto
            46 62 rlineto
            33 -49 -74 31 -77 hhcurveto
            -136 -74 -61 -82 -71 86 -44 97 -25 hvcurveto
            108 -27 43 -24 -36 vvcurveto
            -38 -38 -29 -83 -81 -59 25 39 -55 vhcurveto
            return
          </CharString>
          <CharString index="7">
            vstem
            109 hmoveto
            116 hlineto
            49 224 11 60 6 43 7 40 rlinecurve
            4 hlineto
            9 -50 7 -46 9 -46 50 -225 rcurveline
            118 hlineto
            98 489 rlineto
            -92 hlineto
            -52 -268 -8 -47 -5 -45 -9 -47 rlinecurve
            -4 hlineto
            -9 47 -9 45 -10 47 -54 229 rcurveline
            -78 hlineto
            -52 -229 -10 -46 -9 -46 -8 -47 rlinecurve
            -4 hlineto
            -7 47 -6 45 -9 47 -52 268 rcurveline
            -99 hlineto
            return
          </CharString>
          <CharString index="8">
            88 hmoveto
            99 337 hlineto
            52 50 37 26 52 hhcurveto
            74 28 -40 -85 hvcurveto
            -290 99 303 vlineto
            127 -52 71 -114 -76 -55 -40 return
          </CharString>
          <CharString index="9">
            250 hmoveto
            100 230 hlineto
            217 425 rlineto
            -103 hlineto
            -87 -185 -24 -51 -24 -49 -25 -52 rlinecurve
            -4 hlineto
            -25 52 -22 49 -24 51 -90 185 rcurveline
            -106 hlineto
            217 -425 rlineto
            return
          </CharString>
          <CharString index="10">
            -94 callsubr
            -42 -32 -28 -43 -42 32 -28 42 hvcurveto
            endchar
          </CharString>
          <CharString index="11">
            198 193 rmoveto
            -122 49 -83 145 55 56 13 15 44 vhcurveto
            -20 73 rlineto
            -13 -33 -36 -8 -43 hhcurveto
            -89 -29 41 84 hvcurveto
            216 231 80 -231 135 -82 vlineto
            -13 -135 -138 -5 rlineto
            -75 134 vlineto
            return
          </CharString>
          <CharString index="12">
            rmoveto
            8 -12 7 -15 -16 vvcurveto
            -47 -37 -13 -50 -5 vhcurveto
            -44 -412 hlineto
            -120 -52 -48 -75 -74 -51 48 120 vhcurveto
            412 -101 -406 vlineto
            -184 90 -77 136 136 88 77 184 vhcurveto
            365 vlineto
            61 13 52 31 69 vvcurveto
            27 -58 callgsubr
          </CharString>
          <CharString index="13">
            42 32 28 42 43 -32 28 -42 return
          </CharString>
          <CharString index="14">
            vstem
            76 61 callsubr
            153 71 70 27 48 55 vhcurveto
            -42 64 rlineto
            -32 -39 -48 -26 -59 hhcurveto
            -104 -71 70 105 105 73 70 105 48 40 -19 -32 39 hvcurveto
            48 63 rlineto
            39 -40 -60 31 -80 hhcurveto
            -148 -127 -94 -163 hvcurveto
            return
          </CharString>
          <CharString index="15">
            -61 callgsubr
            72 153 63 callgsubr
            215 90 -10 95 hintmask 1011101100100000
            -22 callgsubr
            hintmask 1101101010010000
            -67 callsubr
            hintmask 1011101100100000
            -53 callsubr
            hintmask 1101101001010000
            -91 callsubr
            hintmask 1101101010100000
            -62 callsubr
            hintmask 1101011010100000
            -71 callgsubr
            hintmask 1011101001100000
            -53 callgsubr
            hintmask 1011101100100000
            51 callsubr
            hintmask 1101011010100000
            -80 callsubr
            return
          </CharString>
          <CharString index="16">
            169 107 78 93 84 -62 34 -127 hvcurveto
            -104 hlineto
            -62 -35 15 36 21 12 16 22 14 hvcurveto
            -11 27 28 -5 24 hhcurveto
            return
          </CharString>
          <CharString index="17">
            rmoveto
            32 23 23 32 31 -23 23 -32 -31 -23 -23 -31 -32 23 -23 31 hvcurveto
            180 hmoveto
            31 23 23 32 31 -23 23 -31 -32 -23 -23 -31 -32 23 -23 32 hvcurveto
            endchar
          </CharString>
          <CharString index="18">
            rmoveto
            29 21 21 29 29 -21 20 -29 -28 -21 -20 -29 -29 21 -21 28 hvcurveto
            93 callgsubr
            29 29 -21 20 -28 -29 -21 -20 -29 -29 21 -21 29 hvcurveto
            return
          </CharString>
          <CharString index="19">
            rmoveto
            42 32 27 43 42 -32 29 -42 -42 -32 -29 -42 -43 32 -27 42 hvcurveto
            return
          </CharString>
          <CharString index="20">
            63 9 55 26 61 vvcurveto
            52 -6 callsubr
            -55 11 callsubr
            -23 -11 -31 -7 vhcurveto
            return
          </CharString>
          <CharString index="21">
            14 -32 -36 8 -36 hhcurveto
            -128 -116 -94 -163 -162 116 -94 128 128 116 94 162 86 -32 67 -50 44 hvcurveto
            return
          </CharString>
          <CharString index="22">
            rmoveto
            63 -78 callsubr
            return
          </CharString>
          <CharString index="23">
            4 hlineto
            63 -66 rlineto
            79 -71 callsubr
            return
          </CharString>
          <CharString index="24">
            rmoveto
            -42 -32 -28 -43 -42 32 -28 42 -94 callsubr
            hvcurveto
            -92 359 rmoveto
            27 90 21 71 21 73 19 74 rlinecurve
            4 hlineto
            20 -73 21 -74 21 -71 27 -90 rcurveline
            185 -267 rmoveto
            -216 655 rlineto
            -116 hlineto
            -216 -655 rlineto
            102 hlineto
            56 188 rlineto
            228 hlineto
            56 -188 rlineto
            endchar
          </CharString>
          <CharString index="25">
            126 -90 rmoveto
            -35 -70 rlineto
            -35 54 71 -17 61 hhcurveto
            151 84 77 125 hvcurveto
            return
          </CharString>
          <CharString index="26">
            98 rlineto
            4 hlineto
            63 -98 rlineto
            75 115 callsubr
            return
          </CharString>
          <CharString index="27">
            223 307 rmoveto
            -56 -46 40 66 64 46 42 56 56 46 -42 -64 -66 -46 -40 -56 hvcurveto
            return
          </CharString>
          <CharString index="28">
            -88 callsubr
            endchar
          </CharString>
          <CharString index="29">
            66 rlineto
            -84 callsubr
            return
          </CharString>
          <CharString index="30">
            -89 callgsubr
            -140 94 return
          </CharString>
          <CharString index="31">
            -12 -72 callsubr
            return
          </CharString>
          <CharString index="32">
            -113 -106 -98 -159 hvcurveto
            102 1 rmoveto
            106 63 67 76 39 38 -13 -37 39 vhcurveto
            -232 vlineto
            -44 -38 -41 -22 -44 hhcurveto
            -83 -49 63 112 hvcurveto
            return
          </CharString>
          <CharString index="33">
            8 -60 rlineto
            81 489 -78 hlineto
            return
          </CharString>
          <CharString index="34">
            -40 callsubr
            72 122 -53 115 94 callgsubr
            hintmask 10110110
            -97 callgsubr
            hintmask 01110110
            -104 callgsubr
            hintmask 10110110
            -18 callgsubr
            return
          </CharString>
          <CharString index="35">
            -62 callgsubr
            -12 -20 return
          </CharString>
          <CharString index="36">
            hlineto
            -96 -26 callgsubr
            -96 hlineto
            -96 -114 rlineto
            return
          </CharString>
          <CharString index="37">
            rmoveto
            -34 39 40 -17 52 hhcurveto
            73 54 44 63 63 -45 36 -66 -19 -20 -4 -7 -14 hvcurveto
            8 61 rlineto
            138 63 -196 hlineto
            -15 -157 33 -22 rlineto
            13 20 17 8 24 hhcurveto
            37 24 -18 -34 -33 -25 -19 -35 -38 -29 18 22 -23 hvcurveto
            endchar
          </CharString>
          <CharString index="38">
            -21 188 79 308 80 return
          </CharString>
          <CharString index="39">
            -33 -8 -20 -29 -47 hhcurveto
            -47 -20 29 33 -8 hvcurveto
            -51 hlineto
            -60 7 39 -51 80 hhcurveto
            return
          </CharString>
          <CharString index="40">
            -6 21 24 -2 30 hhcurveto
            86 hlineto
            70 36 -11 -42 -47 -67 -43 -104 hvcurveto
            return
          </CharString>
          <CharString index="41">
            hstem
            -56 callsubr
            vstem
            return
          </CharString>
          <CharString index="42">
            -40 callgsubr
            -43 -31 -28 -43 -42 31 182 callsubr
          </CharString>
          <CharString index="43">
            138 hmoveto
            99 278 hlineto
            98 54 68 36 70 hhcurveto
            37 19 -5 -11 33 hvcurveto
            return
          </CharString>
          <CharString index="44">
            -12 85 -52 -16 callgsubr
            return
          </CharString>
          <CharString index="45">
            107 85 60 107 38 -19 33 -20 21 hvcurveto
            122 75 -201 hlineto
            return
          </CharString>
          <CharString index="46">
            vstem
            71 hmoveto
            463 80 -324 hlineto
            315 356 rlineto
            53 -418 -80 278 vlineto
            -314 -356 rlineto
            return
          </CharString>
          <CharString index="47">
            -233 141 return
          </CharString>
          <CharString index="48">
            -630 rmoveto
            -91 -61 100 155 155 61 95 91 91 61 -95 -155 -155 -61 -100 -91 hvcurveto
            hintmask 11110100
            -88 callgsubr
            hintmask 11111000
            -29 callgsubr
            hintmask 11110100
            61 14 43 34 62 vvcurveto
            27 -58 callgsubr
          </CharString>
          <CharString index="49">
            252 58 223 59 hstem
            164 72 135 74 vstem
            164 346 rmoveto
            -56 45 -38 58 41 38 20 24 31 vhcurveto
            2 hlineto
            5 -36 rlineto
            61 193 hlineto
            89 -43 50 -85 -53 -51 -21 -22 -37 vhcurveto
            29 -49 rlineto
            18 29 35 15 35 hhcurveto
            48 17 -29 -37 2 hvcurveto
            -143 -15 -64 -36 -70 vvcurveto
            72 6 rmoveto
            34 36 23 99 11 vhcurveto
            -74 vlineto
            -23 -27 -26 -13 -29 hhcurveto
            -29 -24 13 29 hvcurveto
            endchar
          </CharString>
          <CharString index="50">
            36 25 26 35 34 -25 -43 callsubr
            return
          </CharString>
          <CharString index="51">
            253 94 return
          </CharString>
          <CharString index="52">
            79 -46 -21 420 81 return
          </CharString>
          <CharString index="53">
            84 216 84 187 84 return
          </CharString>
          <CharString index="54">
            -97 -53 31 47 hvcurveto
            -84 -12 rmoveto
            -86 86 -46 138 vhcurveto
            return
          </CharString>
          <CharString index="55">
            77 hlineto
            hintmask 11000000
            5 106 17 68 83 92 rrcurveto
            41 -249 -62 vlineto
            hintmask 10100000
            164 hlineto
            -63 -82 -28 -63 -6 -100 rrcurveto
            endchar
          </CharString>
          <CharString index="56">
            rmoveto
            -57 callsubr
            return
          </CharString>
          <CharString index="57">
            rmoveto
            52 7 46 21 53 vvcurveto
            46 -41 26 -86 3 vhcurveto
            -10 -47 rlineto
            50 -3 19 -10 -24 vvcurveto
            -20 -18 -9 -23 -5 vhcurveto
            return
          </CharString>
          <CharString index="58">
            544 rmoveto
            58 40 38 57 56 -40 38 -58 -58 -40 -38 -56 -57 40 -38 151 callgsubr
            21 33 32 20 21 26 26 20 -21 -32 -33 -20 -21 -26 hvcurveto
            endchar
          </CharString>
          <CharString index="59">
            87 409 rmoveto
            219 -416 hlineto
            -80 -25 -45 -90 -35 -37 9 17 -36 vhcurveto
            -31 -73 rlineto
            -19 39 50 -14 53 hhcurveto
            163 48 91 120 hvcurveto
            490 -318 vlineto
            return
          </CharString>
          <CharString index="60">
            63 9 55 26 61 vvcurveto
            51 -6 callsubr
            -54 11 callsubr
            -23 -11 -31 -8 vhcurveto
            return
          </CharString>
          <CharString index="61">
            rmoveto
            -34 37 48 -17 45 hhcurveto
            69 55 36 59 40 -26 26 -44 11 hvcurveto
            return
          </CharString>
          <CharString index="62">
            rmoveto
            82 60 63 104 104 -60 60 -82 -82 -60 -60 -104 -104 60 -63 82 hvcurveto
            57 vmoveto
            -39 -31 35 75 77 31 30 39 39 31 -30 -77 -75 -31 -35 -39 hvcurveto
            endchar
          </CharString>
          <CharString index="63">
            14 -30 -28 6 -38 hhcurveto
            -87 -76 -47 -79 -50 hvcurveto
            -3 hlineto
            return
          </CharString>
          <CharString index="64">
            27 -36 -35 33 callsubr
            35 hvcurveto
            return
          </CharString>
          <CharString index="65">
            152 callgsubr
            114 return
          </CharString>
          <CharString index="66">
            127 hmoveto
            414 84 -315 571 -99 hlineto
            return
          </CharString>
          <CharString index="67">
            -12 -55 callsubr
            return
          </CharString>
          <CharString index="68">
            rmoveto
            49 70 42 63 rlineto
            3 hlineto
            -5 -86 rlineto
            -47 vlineto
            118 hmoveto
            -51 188 -87 hlineto
            -141 -201 rlineto
            -36 161 -70 67 70 51 vlineto
            endchar
          </CharString>
          <CharString index="69">
            99 hlineto
            96 52 -29 -80 -80 -52 -39 -96 hvcurveto
            -99 hlineto
            return
          </CharString>
          <CharString index="70">
            55 32 47 71 8 hvcurveto
            -54 hlineto
            return
          </CharString>
          <CharString index="71">
            rmoveto
            -105 hlineto
            -90 -153 rlineto
            return
          </CharString>
          <CharString index="72">
            rmoveto
            -205 120 -129 153 153 120 129 205 204 -120 126 -153 -153 -120 -126 -204 vhcurveto
            51 hmoveto
            172 89 112 133 133 89 -112 -172 -172 -89 -116 -133 -133 -89 116 172 vhcurveto
            return
          </CharString>
          <CharString index="73">
            -31 -29 54 -48 hhcurveto
            -55 -32 -46 -72 -8 hvcurveto
            return
          </CharString>
          <CharString index="74">
            161 -67 rmoveto
            52 10 48 19 57 vvcurveto
            47 -43 24 -86 3 vhcurveto
            -8 -46 50 callsubr
            -24 -6 vhcurveto
            endchar
          </CharString>
          <CharString index="75">
            rmoveto
            -102 39 -71 66 -68 vhcurveto
            55 37 rlineto
            -59 61 -26 66 77 vvcurveto
            76 26 67 59 61 vhcurveto
            -55 36 rlineto
            -66 -68 -39 -71 -101 vvcurveto
            endchar
          </CharString>
          <CharString index="76">
            270 696 rmoveto
            -87 callsubr
            return
          </CharString>
          <CharString index="77">
            48 callsubr
            141 callgsubr
            return
          </CharString>
          <CharString index="78">
            -69 callgsubr
            hstem
            -69 callgsubr
            vstem
            return
          </CharString>
          <CharString index="79">
            -12 65 callsubr
            return
          </CharString>
          <CharString index="80">
            -300 hlineto
            endchar
          </CharString>
          <CharString index="81">
            252 60 220 60 hstem
            140 76 168 76 vstem
            140 421 rmoveto
            -107 75 -62 85 85 75 62 107 108 -75 63 -85 -85 -75 -63 -108 vhcurveto
            76 hmoveto
            66 31 45 53 53 31 -45 -66 -65 -31 -44 -53 -53 -31 44 65 vhcurveto
            endchar
          </CharString>
          <CharString index="82">
            28 -7 21 -11 -24 vvcurveto
            -25 -36 -12 -51 -6 vhcurveto
            8 -19 callsubr
            return
          </CharString>
          <CharString index="83">
            hstem
            0 600 54 callsubr
            return
          </CharString>
          <CharString index="84">
            128 -107 -21 527 128 0 -20 return
          </CharString>
          <CharString index="85">
            116 callsubr
            -74 hlineto
            -64 47 callgsubr
          </CharString>
          <CharString index="86">
            hstem
            -89 callgsubr
            vstem
            207 -400 rmoveto
            186 return
          </CharString>
          <CharString index="87">
            rmoveto
            -30 -31 19 47 -8 hvcurveto
            21 23 21 9 24 hhcurveto
            36 17 -19 -28 -30 -19 -19 -33 hvcurveto
            115 239 rmoveto
            20 -26 return
          </CharString>
          <CharString index="88">
            -46 rlineto
            81 6 72 28 61 vvcurveto
            return
          </CharString>
          <CharString index="89">
            rmoveto
            42 32 27 43 42 -32 29 -42 -43 -31 -29 -42 -43 31 -27 43 hvcurveto
            endchar
          </CharString>
          <CharString index="90">
            250 hmoveto
            100 571 211 84 -522 -84 211 hlineto
            return
          </CharString>
          <CharString index="91">
            39 -43 -61 31 -81 hhcurveto
            -139 -129 -101 -251 -210 110 -99 137 116 101 82 125 132 -82 65 -116 -60 -64 -30 -50 -50 hvcurveto
            190 4 84 66 95 hhcurveto
            47 45 -20 -30 32 hvcurveto
            endchar
          </CharString>
          <CharString index="92">
            90 callgsubr
            61 -60 rlineto
            73 hlineto
            -93 108 rlineto
            -86 hlineto
            return
          </CharString>
          <CharString index="93">
            hstem
            250 100 vstem
            return
          </CharString>
          <CharString index="94">
            -207 63 hstem
            229 70 vstem
            229 -120 rmoveto
            58 callgsubr
            37 24 35 41 31 hvcurveto
            -64 hlineto
            -32 -23 -39 -45 -55 vvcurveto
            endchar
          </CharString>
          <CharString index="95">
            68 callsubr
            41 -26 20 -33 11 vhcurveto
            return
          </CharString>
          <CharString index="96">
            -55 39 -38 51 51 39 38 55 54 -39 39 -51 -51 -39 -39 -54 vhcurveto
            endchar
          </CharString>
          <CharString index="97">
            7 callgsubr
            hintmask 10100000
            141 callgsubr
            return
          </CharString>
          <CharString index="98">
            -39 rlineto
            24 18 24 16 25 hhcurveto
            36 20 -21 -33 -42 -59 -48 -98 -73 hvcurveto
            return
          </CharString>
          <CharString index="99">
            -89 callgsubr
            hstem
            253 94 vstem
            111 callgsubr
            return
          </CharString>
          <CharString index="100">
            -46 31 -31 45 8 8 2 3 8 vhcurveto
            -4 -68 -38 -51 return
          </CharString>
          <CharString index="101">
            44 callgsubr
            -10 return
          </CharString>
          <CharString index="102">
            538 160 hstem
            319 76 vstem
            244 334 rmoveto
            96 60 callgsubr
            -58 -46 -33 -34 -49 -7 callsubr
            -64 -34 rrcurveto
            endchar
          </CharString>
          <CharString index="103">
            79 callgsubr
            hintmask 1011110100000000
            67 callsubr
          </CharString>
          <CharString index="104">
            -41 51 hhcurveto
            46 30 37 59 6 hvcurveto
            -48 hlineto
            -28 -5 -14 -13 -19 -31 return
          </CharString>
          <CharString index="105">
            rmoveto
            84 -26 callgsubr
            -89 hlineto
            -65 -114 rlineto
            163 hmoveto
            70 hlineto
            85 -26 callgsubr
            -90 hlineto
            endchar
          </CharString>
          <CharString index="106">
            33 -132 rmoveto
            28 21 21 29 29 -21 20 -28 -29 -21 -20 -29 -29 21 -21 29 hvcurveto
            -180 hmoveto
            29 21 21 29 29 -21 20 -29 -28 -21 -20 -29 -29 21 -21 28 hvcurveto
            endchar
          </CharString>
          <CharString index="107">
            696 rmoveto
            hintmask 1011010100000000
            27 callsubr
            hintmask 1010101010000000
            -34 callsubr
            102 callsubr
            return
          </CharString>
          <CharString index="108">
            20 callsubr
            31 37 59 6 hvcurveto
            -48 hlineto
            hintmask 11011000
            -28 -5 -14 -13 -19 hhcurveto
            hintmask 10111000
            -31 -20 162 callsubr
            -6 hvcurveto
            endchar
          </CharString>
          <CharString index="109">
            hstem
            399 100 vstem
            75 97 rmoveto
            -77 48 79 -32 73 hhcurveto
            168 56 101 124 hvcurveto
            443 -369 -84 269 -351 vlineto
            -103 -40 -43 -86 -49 -49 27 55 -37 vhcurveto
            return
          </CharString>
          <CharString index="110">
            598 67 hstem
            173 254 vstem
            173 598 rmoveto
            254 67 82 callsubr
          </CharString>
          <CharString index="111">
            rmoveto
            57 41 36 55 55 -41 35 -57 -58 -40 -35 -55 -55 40 -36 151 callgsubr
            19 31 30 20 19 26 25 20 -19 -30 -31 -20 -19 -25 hvcurveto
            endchar
          </CharString>
          <CharString index="112">
            57 90 42 85 57 hstemhm
            336 73 -59 74 hintmask 11101000
            170 return
          </CharString>
          <CharString index="113">
            -55 callsubr
            72 153 hstemhm
            76 96 return
          </CharString>
          <CharString index="114">
            rmoveto
            64 hlineto
            90 145 rlineto
            -84 hlineto
            return
          </CharString>
          <CharString index="115">
            rmoveto
            91 39 72 67 168 callsubr
            return
          </CharString>
          <CharString index="116">
            -60 callsubr
            113 -21 return
          </CharString>
          <CharString index="117">
            rmoveto
            74 hlineto
            64 32 callsubr
          </CharString>
          <CharString index="118">
            rlineto
            55 -3 27 -13 -24 vvcurveto
            -23 return
          </CharString>
          <CharString index="119">
            rmoveto
            70 50 49 83 81 -50 47 -70 -70 -49 -47 -81 -83 49 -49 70 hvcurveto
            47 vmoveto
            -32 -25 26 59 57 25 24 32 33 25 -23 -58 -59 -25 -26 -33 hvcurveto
            return
          </CharString>
          <CharString index="120">
            hlineto
            107 callgsubr
            endchar
          </CharString>
          <CharString index="121">
            rmoveto
            -30 21 -21 29 29 21 21 30 31 -21 22 -29 -29 -21 -22 -31 vhcurveto
            endchar
          </CharString>
          <CharString index="122">
            57 217 57 hstem
            158 72 140 72 vstem
            300 return
          </CharString>
          <CharString index="123">
            252 61 218 61 hstem
            135 76 156 75 vstem
            return
          </CharString>
          <CharString index="124">
            hstemhm
            56 102 255 99 return
          </CharString>
          <CharString index="125">
            20 callsubr
            30 37 59 6 hvcurveto
            -47 hlineto
            hintmask 1010110101000000
            -28 -5 -14 -13 -19 hhcurveto
            hintmask 1010101110100000
            -31 -20 41 -51 hhcurveto
            return
          </CharString>
          <CharString index="126">
            42 rlineto
            -29 7 -20 11 25 vvcurveto
            25 36 12 51 6 vhcurveto
            -9 45 rlineto
            -80 -6 return
          </CharString>
          <CharString index="127">
            28 5 14 13 19 31 20 -41 51 hhcurveto
            45 return
          </CharString>
          <CharString index="128">
            -12 76 callgsubr
            return
          </CharString>
          <CharString index="129">
            40 14 16 22 38 vvcurveto
            52 -47 33 -62 -49 -45 -18 -26 -26 vhcurveto
            33 -45 rlineto
            19 20 28 13 23 hhcurveto
            35 16 -15 -24 -29 -25 -17 -51 hvcurveto
            return
          </CharString>
          <CharString index="130">
            rmoveto
            253 67 -253 hlineto
            endchar
          </CharString>
          <CharString index="131">
            -77 callsubr
            hstemhm
            -89 callgsubr
            hintmask 01100000
            175 callsubr
            hlineto
            hintmask 10100000
            42 callgsubr
            return
          </CharString>
          <CharString index="132">
            rmoveto
            -21 182 callgsubr
            21 -11 -24 vvcurveto
            -25 -36 -12 -52 -6 vhcurveto
            9 -19 callsubr
            46 -30 23 -73 10 vhcurveto
            endchar
          </CharString>
          <CharString index="133">
            hstem
            -69 callgsubr
            vstem
            160 -400 rmoveto
            93 return
          </CharString>
          <CharString index="134">
            -37 -7 -12 -17 -22 hhcurveto
            return
          </CharString>
          <CharString index="135">
            -77 callsubr
            hstemhm
            -56 callsubr
            hintmask 10100000
            111 callgsubr
            hlineto
            hintmask 01100000
            653 300 94 -300 return
          </CharString>
          <CharString index="136">
            25 hlineto
            -27 -26 -36 -40 -54 108 callsubr
            -13 -11 -5 -15 hhcurveto
            -24 -22 15 29 hvcurveto
            return
          </CharString>
          <CharString index="137">
            rlineto
            57 hlineto
            -250 124 rmoveto
            57 49 31 126 18 vhcurveto
            -117 vlineto
            -37 -33 -35 -20 -34 hhcurveto
            -45 -28 25 43 hvcurveto
            endchar
          </CharString>
          <CharString index="138">
            hhcurveto
            -44 -22 35 37 -5 hvcurveto
            -59 62 callgsubr
            endchar
          </CharString>
          <CharString index="139">
            -81 callsubr
            endchar
          </CharString>
          <CharString index="140">
            -24 callgsubr
            -26 return
          </CharString>
          <CharString index="141">
            65 rmoveto
            -82 -56 56 118 -13 hvcurveto
            58 50 55 22 46 hhcurveto
            80 45 -43 -81 -81 -56 -49 -69 hvcurveto
            207 514 rmoveto
            return
          </CharString>
          <CharString index="142">
            62 9 56 26 61 vvcurveto
            51 44 callgsubr
            -11 -54 11 callgsubr
            -30 -8 vhcurveto
            endchar
          </CharString>
          <CharString index="143">
            -186 -607 82 callsubr
          </CharString>
          <CharString index="144">
            -67 4 39 -72 91 hhcurveto
            endchar
          </CharString>
          <CharString index="145">
            -69 callgsubr
            -45 callgsubr
            -400 rmoveto
            94 560 300 112 callsubr
            return
          </CharString>
          <CharString index="146">
            hhcurveto
            -50 -24 37 40 -6 hvcurveto
            -50 62 callgsubr
            return
          </CharString>
          <CharString index="147">
            49 133 55 hstem
            330 67 vstem
            241 return
          </CharString>
          <CharString index="148">
            129 callsubr
            -12 -20 return
          </CharString>
          <CharString index="149">
            254 -607 186 return
          </CharString>
          <CharString index="150">
            hstemhm
            73 99 239 99 return
          </CharString>
          <CharString index="151">
            82 callgsubr
            82 return
          </CharString>
          <CharString index="152">
            rmoveto
            -38 callsubr
            return
          </CharString>
          <CharString index="153">
            54 -49 86 callgsubr
          </CharString>
          <CharString index="154">
            32 27 -54 49 hhcurveto
            return
          </CharString>
          <CharString index="155">
            -89 callgsubr
            hstem
            -89 callgsubr
            vstem
            return
          </CharString>
          <CharString index="156">
            87 callgsubr
            64 -98 rlineto
            return
          </CharString>
          <CharString index="157">
            136 callgsubr
            -16 -10 return
          </CharString>
          <CharString index="158">
            -51 -29 -28 -38 -39 vvcurveto
            return
          </CharString>
          <CharString index="159">
            -205 80 614 -20 return
          </CharString>
          <CharString index="160">
            -254 653 -186 return
          </CharString>
          <CharString index="161">
            56 callsubr
            600 return
          </CharString>
          <CharString index="162">
            254 -653 186 return
          </CharString>
          <CharString index="163">
            vstem
            -200 vmoveto
            return
          </CharString>
          <CharString index="164">
            31 20 -3 callsubr
            -20 41 -51 hhcurveto
            return
          </CharString>
          <CharString index="165">
            rlineto
            82 vlineto
            -148 -6 6 164 rlineto
            -82 hlineto
            6 -164 -148 6 rlineto
            -82 vlineto
            148 return
          </CharString>
          <CharString index="166">
            -23 callsubr
            hstemhm
            79 95 return
          </CharString>
          <CharString index="167">
            -56 callsubr
            -66 callsubr
            return
          </CharString>
          <CharString index="168">
            166 callsubr
            116 -94 return
          </CharString>
          <CharString index="169">
            hstem
            161 99 80 99 vstem
            return
          </CharString>
          <CharString index="170">
            8 -81 rlineto
            81 453 hlineto
            return
          </CharString>
          <CharString index="171">
            0 84 487 84 return
          </CharString>
          <CharString index="172">
            87 580 -20 return
          </CharString>
          <CharString index="173">
            rlineto
            68 callsubr
            return
          </CharString>
          <CharString index="174">
            180 hmoveto
            -67 callgsubr
            endchar
          </CharString>
          <CharString index="175">
            42 -11 20 43 callgsubr
            146 callsubr
            return
          </CharString>
          <CharString index="176">
            244 62 -125 hlineto
            hintmask 11010000
            61 54 50 46 return
          </CharString>
          <CharString index="177">
            -500 rmoveto
            50 vlineto
            -270 450 rlineto
            -30 hlineto
            return
          </CharString>
          <CharString index="178">
            -56 callsubr
            hstem
            -89 callgsubr
            vstem
            return
          </CharString>
          <CharString index="179">
            41 callsubr
            hstemhm
            88 99 return
          </CharString>
          <CharString index="180">
            -66 callsubr
            -47 return
          </CharString>
          <CharString index="181">
            21 152 callsubr
            return
          </CharString>
          <CharString index="182">
            rlineto
            -4 hlineto
            -63 return
          </CharString>
          <CharString index="183">
            127 -150 return
          </CharString>
          <CharString index="184">
            -63 callsubr
            104 153 43 callsubr
            15 79 hintmask 10111100
            return
          </CharString>
          <CharString index="185">
            158 68 53 20 35 53 vhcurveto
            -32 52 rlineto
            -27 -39 -40 -16 -60 hhcurveto
            -124 -102 return
          </CharString>
          <CharString index="186">
            96 callsubr
            -63 -34 rrcurveto
            return
          </CharString>
          <CharString index="187">
            rmoveto
            37 27 25 36 34 -27 25 -37 -36 -28 -25 -34 -36 28 -25 36 hvcurveto
            endchar
          </CharString>
          <CharString index="188">
            -94 -607 -27 callsubr
          </CharString>
          <CharString index="189">
            -254 hlineto
            endchar
          </CharString>
          <CharString index="190">
            rmoveto
            532 2 hlineto
            -263 501 rlineto
            -4 hlineto
            -265 -501 rlineto
            endchar
          </CharString>
          <CharString index="191">
            12 26 hhcurveto
            54 23 -40 -65 -74 -36 -39 -48 -21 -25 7 20 -26 hvcurveto
            endchar
          </CharString>
          <CharString index="192">
            109 hstem
            156 109 70 109 vstem
            return
          </CharString>
          <CharString index="193">
            0 82 285 83 39 -20 return
          </CharString>
          <CharString index="194">
            21 41 callsubr
            return
          </CharString>
          <CharString index="195">
            21 117 callsubr
            50 114 hstem
            92 100 247 99 vstem
            return
          </CharString>
          <CharString index="196">
            -42 vlineto
            61 29 -16 -31 -30 -24 -13 -33 -33 -35 18 22 -20 hvcurveto
            endchar
          </CharString>
          <CharString index="197">
            81 hstem
            286 75 vstem
            286 return
          </CharString>
          <CharString index="198">
            104 165 callsubr
            return
          </CharString>
          <CharString index="199">
            -51 167 callsubr
            80 6 return
          </CharString>
          <CharString index="200">
            -13 -24 vvcurveto
            -23 -23 -11 return
          </CharString>
          <CharString index="201">
            -37 -59 -6 hvcurveto
            endchar
          </CharString>
          <CharString index="202">
            231 vlineto
            46 44 45 20 40 hhcurveto
            88 38 -65 -102 -116 -59 -65 return
          </CharString>
          <CharString index="203">
            -33 -33 -50 -7 callsubr
            return
          </CharString>
          <CharString index="204">
            -28 callsubr
            70 114 hstem
            75 101 252 97 34 79 vstem
            return
          </CharString>
          <CharString index="205">
            58 vlineto
            137 73 -81 -163 -163 -73 -86 -137 hvcurveto
            endchar
          </CharString>
          <CharString index="206">
            rmoveto
            30 hlineto
            -330 550 rlineto
            -50 vlineto
            return
          </CharString>
          <CharString index="207">
            141 callgsubr
            42 callsubr
            return
          </CharString>
          <CharString index="208">
            75 307 -59 hlineto
            return
          </CharString>
          <CharString index="209">
            -6 callgsubr
            hintmask 1011010100000000
            47 callsubr
            return
          </CharString>
          <CharString index="210">
            hstem
            67 91 76 132 76 91 vstem
            300 -12 rmoveto
            143 90 return
          </CharString>
          <CharString index="211">
            -28 -5 -15 -15 -19 -31 -27 43 -46 hhcurveto
            -45 -32 -39 -59 -5 hvcurveto
            return
          </CharString>
          <CharString index="212">
            607 81 callsubr
          </CharString>
          <CharString index="213">
            500 -27 callsubr
          </CharString>
          <CharString index="214">
            rmoveto
            88 37 54 56 4 hvcurveto
            -52 hlineto
            -31 -6 -22 -28 -49 hhcurveto
            return
          </CharString>
          <CharString index="215">
            vvcurveto
            -43 callgsubr
            return
          </CharString>
          <CharString index="216">
            vvcurveto
            -58 44 -31 56 29 36 13 17 21 vhcurveto
            -25 52 rlineto
            -8 return
          </CharString>
          <CharString index="217">
            -179 -21 188 82 348 83 return
          </CharString>
          <CharString index="218">
            -60 callsubr
            80 76 callgsubr
            return
          </CharString>
          <CharString index="219">
            93 -300 94 300 93 return
          </CharString>
          <CharString index="220">
            hstem
            231 75 vstem
            231 return
          </CharString>
          <CharString index="221">
            68 -56 67 99 68 -58 68 return
          </CharString>
          <CharString index="222">
            hlineto
            -98 153 rlineto
            -84 hlineto
            return
          </CharString>
          <CharString index="223">
            rmoveto
            84 hlineto
            98 153 rlineto
            return
          </CharString>
          <CharString index="224">
            -21 266 81 228 80 return
          </CharString>
          <CharString index="225">
            46 -29 23 -74 10 vhcurveto
            return
          </CharString>
          <CharString index="226">
            rmoveto
            101 callsubr
            return
          </CharString>
          <CharString index="227">
            653 254 94 return
          </CharString>
          <CharString index="228">
            hlineto
            -60 7 38 -53 return
          </CharString>
          <CharString index="229">
            -694 hlineto
            endchar
          </CharString>
          <CharString index="230">
            156 callgsubr
            -114 rlineto
            return
          </CharString>
          <CharString index="231">
            9 54 rlineto
            3 hlineto
            -42 44 56 -24 47 hhcurveto
            114 105 return
          </CharString>
          <CharString index="232">
            573 rmoveto
            -90 153 rlineto
            -105 hlineto
            121 -153 rlineto
            return
          </CharString>
          <CharString index="233">
            -750 rmoveto
            50 vlineto
            -420 700 rlineto
            -30 hlineto
            450 return
          </CharString>
          <CharString index="234">
            hintmask 01100000
            -653 -254 vlineto
            endchar
          </CharString>
          <CharString index="235">
            rmoveto
            -255 -66 255 hlineto
            endchar
          </CharString>
          <CharString index="236">
            -21 415 86 return
          </CharString>
          <CharString index="237">
            54 190 54 return
          </CharString>
          <CharString index="238">
            -200 1000 hstemhm
            0 300 0 300 hintmask 11000000
            return
          </CharString>
          <CharString index="239">
            489 rmoveto
            -66 -5 rlineto
            -75 66 -409 99 409 return
          </CharString>
          <CharString index="240">
            hstem
            300 300 vstem
            300 -200 rmoveto
            300 return
          </CharString>
          <CharString index="241">
            rmoveto
            113 186 -113 hlineto
            return
          </CharString>
          <CharString index="242">
            -60 callsubr
            80 81 350 return
          </CharString>
          <CharString index="243">
            hstem
            226 148 vstem
            300 return
          </CharString>
          <CharString index="244">
            45 103 304 103 return
          </CharString>
          <CharString index="245">
            705 114 hstem
            return
          </CharString>
          <CharString index="246">
            36 169 callgsubr
            return
          </CharString>
          <CharString index="247">
            -21 409 80 return
          </CharString>
          <CharString index="248">
            hstemhm
            200 167 33 100 -78 100 hintmask 11110100
            53 return
          </CharString>
          <CharString index="249">
            173 callsubr
            207 return
          </CharString>
          <CharString index="250">
            80 93 141 hstemhm
            273 148 -115 99 return
          </CharString>
          <CharString index="251">
            -8 108 rlineto
            4 hlineto
            66 -177 rlineto
            47 hlineto
            return
          </CharString>
          <CharString index="252">
            318 rmoveto
            82 60 64 104 103 -60 60 -82 -82 return
          </CharString>
          <CharString index="253">
            92 callsubr
            73 28 61 vvcurveto
            return
          </CharString>
          <CharString index="254">
            35 26 24 36 35 -26 24 -35 -35 -26 -24 -35 return
          </CharString>
          <CharString index="255">
            41 99 41 hstem
            202 52 91 53 vstem
            300 return
          </CharString>
          <CharString index="256">
            rmoveto
            -46 50 69 -42 113 hhcurveto
            124 116 return
          </CharString>
          <CharString index="257">
            122 -53 115 hstemhm
            return
          </CharString>
          <CharString index="258">
            -220 46 195 -21 return
          </CharString>
          <CharString index="259">
            -21 655 -20 return
          </CharString>
          <CharString index="260">
            rmoveto
            65 22 27 20 30 56 40 -82 80 hhcurveto
            return
          </CharString>
          <CharString index="261">
            -60 callsubr
            80 -55 callsubr
            return
          </CharString>
          <CharString index="262">
            578 8 callgsubr
            return
          </CharString>
          <CharString index="263">
            -250 1000 hstem
            256 88 vstem
            256 return
          </CharString>
          <CharString index="264">
            rmoveto
            -39 42 61 -31 81 hhcurveto
            139 130 return
          </CharString>
          <CharString index="265">
            31 26 -43 47 hhcurveto
            45 32 39 59 5 hvcurveto
            return
          </CharString>
          <CharString index="266">
            rmoveto
            75 hlineto
            -90 153 rlineto
            -106 hlineto
            endchar
          </CharString>
          <CharString index="267">
            253 rmoveto
            394 94 131 callgsubr
          </CharString>
          <CharString index="268">
            rmoveto
            113 94 -113 hlineto
            return
          </CharString>
          <CharString index="269">
            41 -51 hhcurveto
            -45 -31 -37 -59 return
          </CharString>
          <CharString index="270">
            129 callsubr
            208 -20 return
          </CharString>
          <CharString index="271">
            -215 46 121 51 hstem
            return
          </CharString>
          <CharString index="272">
            -14 callsubr
            250 return
          </CharString>
          <CharString index="273">
            244 rmoveto
            -162 return
          </CharString>
          <CharString index="274">
            -6 vhcurveto
            9 -46 rlineto
            return
          </CharString>
          <CharString index="275">
            4 hvcurveto
            -59 hlineto
            return
          </CharString>
          <CharString index="276">
            hintmask 11011100
            112 -101 vlineto
            hintmask 11101100
            -112 return
          </CharString>
          <CharString index="277">
            -84 19 hvcurveto
            4 vlineto
            hintmask 11111000
            79 27 54 return
          </CharString>
          <CharString index="278">
            rmoveto
            -107 hlineto
            114 -113 rlineto
            80 hlineto
            return
          </CharString>
          <CharString index="279">
            hstem
            75 150 150 150 vstem
            75 return
          </CharString>
          <CharString index="280">
            -400 1400 -66 callsubr
            return
          </CharString>
          <CharString index="281">
            210 -111 99 -137 -116 -101 return
          </CharString>
          <CharString index="282">
            -27 callgsubr
            55 callsubr
            return
          </CharString>
          <CharString index="283">
            141 136 callsubr
            return
          </CharString>
          <CharString index="284">
            207 -560 93 653 -300 hlineto
            return
          </CharString>
          <CharString index="285">
            rmoveto
            -51 36 -33 44 44 36 33 51 vhcurveto
            return
          </CharString>
          <CharString index="286">
            -33 -34 -49 -46 31 -31 45 8 8 2 return
          </CharString>
          <CharString index="287">
            rlinecurve
            5 hlineto
            -2 -37 -2 -47 -1 -36 rrcurveto
            return
          </CharString>
          <CharString index="288">
            653 106 callgsubr
          </CharString>
          <CharString index="289">
            -28 43 hvcurveto
            endchar
          </CharString>
        <CharString name=".notdef">
          0 67 525 68 hstem
          55 74 341 75 vstem
          55 hmoveto
          490 660 -490 hlineto
          74 -538 rmoveto
          438 vlineto
          119 -220 rlineto
          104 hmoveto
          118 220 rlineto
          -438 vlineto
          -287 -55 rmoveto
          65 118 50 101 rlineto
          4 hlineto
          49 -101 64 -118 rlineto
          -117 327 rmoveto
          -48 94 -57 104 rlineto
          213 hlineto
          -57 -104 -47 -94 rlineto
          endchar
        </CharString>
        <CharString name="A">
          21 -69 callsubr
          121 callgsubr
          208 267 -106 callgsubr
        </CharString>
        <CharString name="AE">
          0 84 96 79 42 84 186 84 hstem
          316 90 vstem
          196 259 rmoveto
          41 113 25 67 26 68 24 71 rlinecurve
          4 -319 hlineto
          90 -175 rmoveto
          217 139 84 -139 186 177 84 -337 vlineto
          -248 -655 rlineto
          104 hlineto
          65 180 rlineto
          149 -180 276 84 hlineto
          endchar
        </CharString>
        <CharString name="Aacute">
          21 -69 callsubr
          50 114 121 callgsubr
          46 callgsubr
          -116 -438 -106 callgsubr
        </CharString>
        <CharString name="Abreve">
          21 -69 callsubr
          51 54 121 callgsubr
          369 819 rmoveto
          -57 callgsubr
          52 callgsubr
          -219 -552 -106 callgsubr
        </CharString>
        <CharString name="Acircumflex">
          21 -69 callsubr
          50 114 121 callgsubr
          298 771 rmoveto
          -84 callsubr
          79 hlineto
          -27 -438 -106 callgsubr
        </CharString>
        <CharString name="Adieresis">
          21 -69 callsubr
          56 85 callsubr
          390 711 rmoveto
          31 23 23 32 31 -23 23 -31 -32 -23 -23 -31 -32 23 -23 32 hvcurveto
          -180 hmoveto
          32 23 23 32 31 -23 23 -32 -31 -23 -23 -31 -32 23 -23 31 hvcurveto
          -2 -444 -106 callgsubr
        </CharString>
        <CharString name="Agrave">
          21 -69 callsubr
          50 114 121 callgsubr
          31 callgsubr
          -68 -438 -106 callgsubr
        </CharString>
        <CharString name="Amacron">
          21 -69 callsubr
          71 67 hstem
          172 256 vstem
          428 793 rmoveto
          -256 -67 256 hlineto
          -220 -459 -106 callgsubr
        </CharString>
        <CharString name="Aogonek">
          -215 68 168 -69 callsubr
          hstem
          416 76 vstem
          208 267 rmoveto
          27 90 22 71 20 73 19 74 rlinecurve
          4 hlineto
          20 -73 20 -74 22 -71 27 -90 rcurveline
          188 -400 rmoveto
          -8 -12 -13 -6 -16 hhcurveto
          -23 -21 15 29 42 34 46 48 15 hvcurveto
          -216 655 rlineto
          -116 hlineto
          -216 -655 rlineto
          102 hlineto
          56 188 rlineto
          228 hlineto
          56 -188 rlineto
          25 hlineto
          -34 -22 -43 -48 146 callgsubr
          endchar
        </CharString>
        <CharString name="Aring">
          21 -69 callsubr
          43 148 callsubr
          838 rmoveto
          25 20 -19 -30 -31 -20 -19 -25 -26 -20 19 31 30 20 19 26 hvcurveto
          -140 vmoveto
          57 41 36 55 55 -41 35 -57 -58 -40 -35 -55 -55 40 -36 58 hvcurveto
          -92 -431 -106 callgsubr
        </CharString>
        <CharString name="Atilde">
          21 -69 callsubr
          54 153 callgsubr
          149 53 196 53 hintmask 11101110
          398 824 rmoveto
          hintmask 11110110
          27 callgsubr
          hintmask 11101110
          -85 callgsubr
          hintmask 11110110
          65 callgsubr
          hintmask 11101110
          34 callgsubr
          -243 -557 -106 callgsubr
        </CharString>
        <CharString name="B">
          0 79 228 73 197 78 hstemhm
          98 100 217 98 -63 98 hintmask 11110100
          98 hmoveto
          202 hlineto
          145 103 62 130 89 -54 51 -95 16 hvcurveto
          4 vlineto
          hintmask 11111000
          77 20 37 59 63 vvcurveto
          118 -95 43 -134 vhcurveto
          -186 hlineto
          100 -275 rmoveto
          197 77 vlineto
          93 47 -28 -65 -67 -42 -37 -101 hvcurveto
          -74 -301 rmoveto
          228 90 vlineto
          hintmask 11110100
          106 56 -34 -75 -81 -58 -38 -104 hvcurveto
          endchar
        </CharString>
        <CharString name="C">
          21 callsubr
          hstem
          63 103 -95 callgsubr
          endchar
        </CharString>
        <CharString name="Cacute">
          -42 callsubr
          hstem
          63 103 -95 callgsubr
          425 493 -65 callgsubr
          endchar
        </CharString>
        <CharString name="Ccaron">
          -42 callsubr
          hstem
          63 103 -95 callgsubr
          351 493 rmoveto
          -63 -66 rlineto
          -4 hlineto
          -64 66 rlineto
          -78 hlineto
          96 -114 rlineto
          96 13 callsubr
        </CharString>
        <CharString name="Ccedilla">
          -215 46 181 -21 589 87 hstem
          63 103 175 74 vstem
          502 144 rmoveto
          -44 -40 -43 -25 -56 hhcurveto
          -119 -78 97 157 155 78 96 117 53 40 -22 -35 33 hvcurveto
          56 63 rlineto
          42 -39 -63 39 -80 hhcurveto
          -172 -126 -128 -213 -195 105 -119 144 -21 hvcurveto
          -34 -66 rlineto
          -12 callgsubr
          17 36 75 5 60 33 50 57 rlinecurve
          endchar
        </CharString>
        <CharString name="Ccircumflex">
          -42 callsubr
          hstem
          63 103 -95 callgsubr
          220 379 rmoveto
          64 -78 callsubr
          endchar
        </CharString>
        <CharString name="Cdotaccent">
          21 callsubr
          43 120 hstem
          63 103 119 128 -95 callgsubr
          286 384 rmoveto
          36 28 25 36 34 -28 25 -36 -37 -27 -25 -34 -36 27 -25 37 hvcurveto
          endchar
        </CharString>
        <CharString name="D">
          0 81 493 81 hstem
          80 100 268 103 vstem
          -75 callgsubr
          endchar
        </CharString>
        <CharString name="Dcaron">
          0 81 493 81 50 114 hstem
          80 100 268 103 vstem
          -75 callgsubr
          125 738 rmoveto
          -63 -86 callgsubr
        </CharString>
        <CharString name="Dcroat">
          -48 callgsubr
        </CharString>
        <CharString name="E">
          0 -54 callsubr
          hstem
          110 100 vstem
          -99 callgsubr
          endchar
        </CharString>
        <CharString name="Eacute">
          0 -54 callsubr
          50 114 hstem
          110 100 vstem
          -99 callgsubr
          357 164 rmoveto
          -110 hlineto
          -86 -114 rlineto
          82 hlineto
          endchar
        </CharString>
        <CharString name="Ebreve">
          0 -54 callsubr
          51 54 hstem
          110 100 vstem
          -99 callgsubr
          218 51 rmoveto
          178 callgsubr
          -20 -29 -43 hhcurveto
          -42 -20 29 30 -6 hvcurveto
          -58 121 callsubr
          81 hhcurveto
          endchar
        </CharString>
        <CharString name="Ecaron">
          0 -54 callsubr
          50 114 hstem
          110 100 vstem
          -99 callgsubr
          284 164 rmoveto
          -64 -86 callgsubr
        </CharString>
        <CharString name="Ecircumflex">
          0 -54 callsubr
          50 114 hstem
          110 100 vstem
          -99 callgsubr
          153 50 rmoveto
          63 66 rlineto
          4 hlineto
          64 -66 rlineto
          78 -71 callsubr
          endchar
        </CharString>
        <CharString name="Edieresis">
          0 -54 callsubr
          56 109 hstemhm
          110 100 -26 109 71 108 hintmask 11101000
          -99 callgsubr
          hintmask 11110110
          129 56 rmoveto
          31 23 23 32 31 -23 23 -31 -32 -23 -23 -31 -32 23 -23 32 hvcurveto
          179 hmoveto
          31 23 23 32 31 -23 23 -31 -32 -22 -23 -31 -32 22 -23 32 hvcurveto
          endchar
        </CharString>
        <CharString name="Edotaccent">
          0 -54 callsubr
          55 120 hstem
          110 100 54 128 vstem
          -99 callgsubr
          218 55 80 callsubr
        </CharString>
        <CharString name="Egrave">
          0 -54 callsubr
          50 114 hstem
          110 100 vstem
          -99 callgsubr
          194 50 rmoveto
          82 hlineto
          -87 -26 callgsubr
          -110 hlineto
          endchar
        </CharString>
        <CharString name="Emacron">
          0 -54 callsubr
          71 67 hstemhm
          110 100 -10 257 hintmask 11111000
          -99 callgsubr
          hintmask 11110100
          90 71 rmoveto
          257 67 -257 hlineto
          endchar
        </CharString>
        <CharString name="Eogonek">
          -215 68 147 -54 callsubr
          hstem
          110 100 151 76 vstem
          110 hmoveto
          327 hlineto
          -37 -23 -39 -47 146 callgsubr
          -26 52 rlineto
          -8 -12 -12 -6 -15 hhcurveto
          -23 -23 14 30 51 44 47 46 5 hvcurveto
          4 84 -321 216 263 84 -263 187 311 84 -411 hlineto
          endchar
        </CharString>
        <CharString name="Eth">
          -48 callgsubr
        </CharString>
        <CharString name="Euro">
          -12 79 163 55 62 56 168 78 hstem
          112 101 vstem
          513 133 rmoveto
          -43 -37 -40 -23 -54 hhcurveto
          -85 -56 60 103 -20 hvcurveto
          242 55 -249 hlineto
          -1 11 0 12 12 vvcurveto
          9 0 9 1 9 vhcurveto
          289 56 -283 hlineto
          106 18 58 62 90 hhcurveto
          48 37 -23 -32 33 hvcurveto
          57 55 rlineto
          46 -41 -63 32 -68 hhcurveto
          -142 -101 -91 -155 -27 hvcurveto
          -65 -5 rlineto
          -51 59 vlineto
          -1 -10 0 -10 -10 vvcurveto
          -11 0 -11 1 -11 vhcurveto
          -59 -4 rlineto
          -50 65 vlineto
          -154 26 99 -88 132 hhcurveto
          82 61 34 59 51 hvcurveto
          endchar
        </CharString>
        <CharString name="F">
          21 -21 283 85 203 84 hstem
          128 99 vstem
          128 hmoveto
          99 283 262 85 -262 203 309 84 -408 hlineto
          endchar
        </CharString>
        <CharString name="G">
          61 callgsubr
          hstem
          51 103 291 92 vstem
          -102 callsubr
          endchar
        </CharString>
        <CharString name="Gbreve">
          61 callgsubr
          39 54 hstem
          51 103 291 92 vstem
          -102 callsubr
          280 380 rmoveto
          178 callgsubr
          -21 -29 -42 hhcurveto
          -42 -20 29 30 -6 hvcurveto
          -59 121 callsubr
          82 hhcurveto
          endchar
        </CharString>
        <CharString name="Gcaron">
          61 callgsubr
          38 114 hstem
          51 103 291 92 vstem
          -102 callsubr
          345 493 rmoveto
          -63 -86 callgsubr
        </CharString>
        <CharString name="Gcircumflex">
          61 callgsubr
          38 114 hstem
          51 103 291 92 vstem
          -102 callsubr
          215 379 -85 callsubr
          endchar
        </CharString>
        <CharString name="Gdotaccent">
          61 callgsubr
          43 120 hstem
          51 103 113 128 50 92 vstem
          -102 callsubr
          280 384 -54 callgsubr
        </CharString>
        <CharString name="H">
          21 163 callgsubr
          hstem
          75 101 248 101 vstem
          -25 callgsubr
          endchar
        </CharString>
        <CharString name="Hbar">
          21 -21 299 87 104 53 -53 165 hstemhm
          75 101 248 101 hintmask 11011100
          424 386 rmoveto
          -248 104 248 hlineto
          hintmask 11101100
          168 53 rmoveto
          -67 hlineto
          169 callsubr
          -248 vlineto
          169 callsubr
          vlineto
          -67 -5 rlineto
          hintmask 11011100
          -48 67 -490 101 299 248 -299 101 490 67 vlineto
          endchar
        </CharString>
        <CharString name="Hcircumflex">
          21 163 callgsubr
          70 114 hstem
          75 101 248 101 vstem
          -25 callgsubr
          159 50 110 callgsubr
          -97 hlineto
          -96 -114 rlineto
          endchar
        </CharString>
        <CharString name="I">
          64 callsubr
          -14 callsubr
          -92 callgsubr
          endchar
        </CharString>
        <CharString name="Iacute">
          64 callsubr
          50 118 callgsubr
          -92 callgsubr
          349 735 -65 callgsubr
          endchar
        </CharString>
        <CharString name="Icircumflex">
          64 callsubr
          50 118 callgsubr
          -92 callgsubr
          145 621 -85 callsubr
          endchar
        </CharString>
        <CharString name="Idieresis">
          64 callsubr
          56 147 callgsubr
          hintmask 11001000
          -92 callgsubr
          hintmask 11110100
          120 627 -90 callsubr
        </CharString>
        <CharString name="Idotaccent">
          64 callsubr
          55 120 hstemhm
          236 128 -114 100 hintmask 11001000
          -92 callgsubr
          hintmask 11110000
          210 626 -54 callgsubr
        </CharString>
        <CharString name="Igrave">
          64 callsubr
          50 118 callgsubr
          -92 callgsubr
          186 621 -1 callgsubr
        </CharString>
        <CharString name="Imacron">
          64 callsubr
          71 67 -14 callsubr
          -92 callgsubr
          82 642 51 callgsubr
        </CharString>
        <CharString name="Iogonek">
          -215 68 147 84 487 84 hstemhm
          207 75 -32 100 hintmask 01101000
          90 hmoveto
          hintmask 11110000
          185 hlineto
          -31 -27 -37 -40 -59 109 callsubr
          -11 -13 -6 -16 hhcurveto
          -23 -23 14 30 40 23 34 45 29 hvcurveto
          160 84 hlineto
          hintmask 01101000
          -160 487 160 84 -420 -84 160 -487 -160 hlineto
          endchar
        </CharString>
        <CharString name="Itilde">
          64 callsubr
          54 153 callgsubr
          149 53 48 100 48 53 hintmask 11100110
          -92 callgsubr
          271 625 rmoveto
          hintmask 11010110
          34 callgsubr
          -53 hlineto
          hintmask 11100110
          27 callgsubr
          hintmask 11011110
          -85 callgsubr
          hintmask 11100110
          68 callgsubr
        </CharString>
        <CharString name="J">
          -12 87 497 84 2 callsubr
          endchar
        </CharString>
        <CharString name="Jcircumflex">
          -12 87 497 84 49 114 2 callsubr
          118 548 -85 callsubr
          endchar
        </CharString>
        <CharString name="K">
          74 callsubr
          hstem
          90 101 3 callgsubr
          endchar
        </CharString>
        <CharString name="L">
          0 84 571 -20 hstem
          127 99 vstem
          -41 callsubr
          endchar
        </CharString>
        <CharString name="Lacute">
          0 84 571 -20 70 114 hstem
          127 99 vstem
          -41 callsubr
          203 164 rmoveto
          -110 hlineto
          -86 -114 rlineto
          82 hlineto
          endchar
        </CharString>
        <CharString name="Lcaron">
          0 84 429 215 -73 -20 hstemhm
          127 99 161 166 callgsubr
          hintmask 10111000
          -41 callsubr
          hintmask 11011000
          308 -142 13 callgsubr
        </CharString>
        <CharString name="Ldot">
          0 84 195 141 235 -20 hstem
          127 99 136 148 vstem
          -41 callsubr
          309 -376 rmoveto
          43 31 27 43 42 -31 29 -43 -42 -32 -29 -42 -43 32 -27 42 hvcurveto
          endchar
        </CharString>
        <CharString name="Lslash">
          0 84 571 -20 hstem
          127 99 vstem
          226 84 rmoveto
          184 vlineto
          220 118 rlineto
          80 vlineto
          -220 -119 rlineto
          308 -99 -356 vlineto
          -79 -43 rlineto
          -79 vlineto
          79 43 rlineto
          -220 414 84 vlineto
          endchar
        </CharString>
        <CharString name="M">
          21 -21 177 109 269 100 hstem
          77 82 280 -34 callgsubr
          endchar
        </CharString>
        <CharString name="N">
          0 59 callsubr
          252 95 hintmask 01011100
          55 callgsubr
          hintmask 01101100
          -83 callgsubr
          hintmask 10011100
          -70 callgsubr
          endchar
        </CharString>
        <CharString name="Nacute">
          0 -23 callsubr
          70 114 hstemhm
          79 95 252 95 hintmask 01011110
          55 callgsubr
          hintmask 01101110
          -83 callgsubr
          hintmask 10011110
          -70 callgsubr
          366 164 -65 callgsubr
          endchar
        </CharString>
        <CharString name="Ncaron">
          0 -23 callsubr
          70 114 hstemhm
          79 95 252 95 hintmask 01011110
          55 callgsubr
          hintmask 01101110
          -83 callgsubr
          hintmask 10011110
          -70 callgsubr
          292 164 rmoveto
          -63 -86 callgsubr
        </CharString>
        <CharString name="Ntilde">
          0 -23 callsubr
          74 153 callgsubr
          79 95 -19 53 196 53 -31 95 hintmask 0101011001000000
          55 callgsubr
          hintmask 0110011001000000
          -83 callgsubr
          hintmask 1001011001000000
          -70 callgsubr
          hintmask 0101101010000000
          288 54 rmoveto
          hintmask 0101011010000000
          34 callgsubr
          -53 hlineto
          hintmask 0101101010000000
          27 callgsubr
          hintmask 0101010101000000
          -85 callgsubr
          hintmask 0101101010000000
          68 callgsubr
        </CharString>
        <CharString name="O">
          21 callsubr
          hstem
          137 callsubr
          vstem
          -106 callsubr
          endchar
        </CharString>
        <CharString name="OE">
          0 81 -81 84 216 84 188 84 hstemhm
          29 103 174 91 hintmask 01111100
          29 330 rmoveto
          -212 103 -118 162 vhcurveto
          298 84 -195 216 141 84 -141 188 185 84 -284 hlineto
          -164 -105 -113 -213 hvcurveto
          hintmask 10111100
          103 hmoveto
          165 52 79 102 vhcurveto
          20 -493 -20 hlineto
          -102 -52 85 164 hvcurveto
          endchar
        </CharString>
        <CharString name="Oacute">
          -42 callsubr
          hstem
          137 callsubr
          vstem
          -106 callsubr
          139 744 -65 callgsubr
          endchar
        </CharString>
        <CharString name="Ocircumflex">
          -42 callsubr
          hstem
          137 callsubr
          vstem
          -106 callsubr
          -65 630 -85 callsubr
          endchar
        </CharString>
        <CharString name="Odieresis">
          21 callsubr
          44 109 hstemhm
          45 103 8 109 70 109 8 103 hintmask 11010010
          -106 callsubr
          hintmask 11111110
          -90 636 -90 callsubr
        </CharString>
        <CharString name="Ograve">
          -42 callsubr
          hstem
          137 callsubr
          vstem
          -106 callsubr
          -24 630 -1 callgsubr
        </CharString>
        <CharString name="Ohorn">
          21 callsubr
          hstemhm
          137 callsubr
          -64 80 hintmask 11110000
          300 75 rmoveto
          -91 -61 100 155 155 61 95 91 91 61 -95 -155 -155 -61 -100 -91 hvcurveto
          hintmask 11101000
          -88 callgsubr
          hintmask 11110000
          -29 callgsubr
          hintmask 11101000
          61 14 43 34 62 vvcurveto
          27 -58 callgsubr
        </CharString>
        <CharString name="Ohungarumlaut">
          -42 callsubr
          hstem
          137 callsubr
          vstem
          -106 callsubr
          -46 630 -2 callsubr
        </CharString>
        <CharString name="Omacron">
          21 callsubr
          59 67 hstemhm
          45 103 24 256 24 103 hintmask 11110100
          -106 callsubr
          hintmask 11111100
          -128 651 51 callgsubr
        </CharString>
        <CharString name="Oslash">
          21 callsubr
          hstem
          137 callsubr
          vstem
          433 462 rmoveto
          12 -37 7 -44 -51 vvcurveto
          -155 -61 -100 -91 -38 -33 17 32 -25 vhcurveto
          -36 67 rmoveto
          -13 39 -7 47 53 vvcurveto
          155 61 95 91 39 34 -18 -33 26 vhcurveto
          163 122 rmoveto
          -55 37 -53 -78 rlineto
          37 -42 -52 20 -60 hhcurveto
          -150 -105 -126 -211 -96 22 -79 37 -58 hvcurveto
          -63 -93 56 -37 52 77 rlineto
          -36 42 51 -20 58 hhcurveto
          150 105 131 211 93 -21 77 -36 57 hvcurveto
          endchar
        </CharString>
        <CharString name="Otilde">
          83 callgsubr
          hintmask 11011001
          -106 callsubr
          hintmask 11101010
          61 634 rmoveto
          hintmask 11011010
          34 callgsubr
          -53 hlineto
          hintmask 11101010
          27 callgsubr
          hintmask 11010101
          -85 callgsubr
          hintmask 11101010
          68 callgsubr
        </CharString>
        <CharString name="P">
          21 -21 250 81 244 80 hstem
          94 100 258 99 vstem
          94 hmoveto
          100 250 111 hlineto
          142 104 66 142 147 -102 50 -144 hvcurveto
          -211 hlineto
          100 -324 rmoveto
          244 101 vlineto
          104 53 -30 -87 -87 -51 -40 -106 hvcurveto
          endchar
        </CharString>
        <CharString name="Q">
          -167 84 99 -21 586 87 hstem
          46 102 300 102 vstem
          148 330 rmoveto
          155 58 96 92 93 57 -96 -155 -154 -57 -102 -93 -92 -58 102 154 vhcurveto
          394 -403 rmoveto
          -6 -12 -18 -4 -20 hhcurveto
          -63 -50 24 54 -23 hvcurveto
          117 30 77 123 182 vvcurveto
          210 -102 128 -150 -150 -102 -127 -211 -187 80 -125 124 -25 vhcurveto
          -92 35 77 -68 118 hhcurveto
          32 27 7 9 21 hvcurveto
          endchar
        </CharString>
        <CharString name="R">
          21 117 callsubr
          hstem
          92 100 247 99 vstem
          192 575 45 callsubr
          369 -347 rmoveto
          -161 279 rlineto
          -84 callgsubr
          endchar
        </CharString>
        <CharString name="Racute">
          88 callsubr
          443 33 callgsubr
          -136 -130 45 callsubr
          369 -347 rmoveto
          -161 279 rlineto
          -84 callgsubr
          endchar
        </CharString>
        <CharString name="Rcaron">
          88 callsubr
          352 57 callgsubr
          -64 -130 45 callsubr
          369 -347 rmoveto
          -161 279 rlineto
          -84 callgsubr
          endchar
        </CharString>
        <CharString name="S">
          21 callsubr
          hstem
          93 101 245 -101 callgsubr
          endchar
        </CharString>
        <CharString name="Sacute">
          -42 callsubr
          hstem
          93 101 245 -101 callgsubr
          328 666 -65 callgsubr
          endchar
        </CharString>
        <CharString name="Scaron">
          -42 callsubr
          hstem
          93 101 245 -101 callgsubr
          255 666 rmoveto
          -64 -86 callgsubr
        </CharString>
        <CharString name="Scircumflex">
          -42 callsubr
          hstem
          93 101 245 -101 callgsubr
          124 552 rmoveto
          63 66 rlineto
          4 hlineto
          64 -66 rlineto
          78 -71 callsubr
          endchar
        </CharString>
        <CharString name="T">
          21 -21 571 84 hstem
          250 100 vstem
          -17 callsubr
          endchar
        </CharString>
        <CharString name="Tcaron">
          21 -21 571 84 50 114 hstem
          250 100 vstem
          -17 callsubr
          115 248 rmoveto
          -64 -66 75 callsubr
          66 rlineto
          -79 hlineto
          96 -114 rlineto
          97 13 callsubr
        </CharString>
        <CharString name="Thorn">
          21 -21 143 80 244 81 -81 188 hstemhm
          94 100 257 99 hintmask 11011100
          94 hmoveto
          100 143 111 hlineto
          142 103 65 142 hvcurveto
          hintmask 11101100
          148 -101 50 -144 vhcurveto
          -111 hlineto
          hintmask 11011100
          107 -100 vlineto
          100 -432 rmoveto
          244 101 vlineto
          104 52 -29 -88 -87 -50 -40 -106 hvcurveto
          endchar
        </CharString>
        <CharString name="U">
          -28 callsubr
          hstem
          75 101 252 -96 callgsubr
          endchar
        </CharString>
        <CharString name="Uacute">
          -28 callsubr
          70 114 hstem
          75 101 252 -96 callgsubr
          364 164 -65 callgsubr
          endchar
        </CharString>
        <CharString name="Ubreve">
          -28 callsubr
          71 54 hstem
          75 101 252 -96 callgsubr
          225 51 rmoveto
          82 38 53 60 7 hvcurveto
          -58 hlineto
          -57 callgsubr
          endchar
        </CharString>
        <CharString name="Ucircumflex">
          -28 callsubr
          70 114 hstem
          75 101 252 -96 callgsubr
          160 50 -85 callsubr
          endchar
        </CharString>
        <CharString name="Udieresis">
          -28 callsubr
          76 109 hstemhm
          75 101 -20 109 70 109 -16 97 hintmask 11110010
          -103 callgsubr
          hintmask 11101100
          135 56 -90 callsubr
        </CharString>
        <CharString name="Ugrave">
          -28 callsubr
          70 114 hstem
          75 101 252 -96 callgsubr
          201 50 -1 callgsubr
        </CharString>
        <CharString name="Uhorn">
          -28 callsubr
          hstem
          75 101 252 97 34 79 vstem
          544 763 -95 callsubr
        </CharString>
        <CharString name="Uhungarumlaut">
          -28 callsubr
          70 114 hstem
          75 101 252 -96 callgsubr
          179 50 -2 callsubr
        </CharString>
        <CharString name="Umacron">
          -28 callsubr
          91 67 hstemhm
          75 101 -4 256 0 97 hintmask 11110100
          -103 callgsubr
          hintmask 11101000
          97 71 51 callgsubr
        </CharString>
        <CharString name="Uogonek">
          -215 68 136 86 580 -20 hstem
          75 101 50 75 127 97 vstem
          75 249 rmoveto
          -163 71 -93 145 -4 vhcurveto
          -24 -22 -41 -36 -57 109 callsubr
          -12 -12 -6 -16 hhcurveto
          -23 -23 14 30 35 28 41 72 33 hvcurveto
          76 35 48 75 133 vvcurveto
          406 -97 -412 vlineto
          -120 -53 -48 -75 -74 -50 48 120 vhcurveto
          412 -101 vlineto
          endchar
        </CharString>
        <CharString name="Uring">
          -28 callsubr
          63 41 99 41 hstemhm
          75 101 26 52 91 53 30 97 hintmask 11111001
          -103 callgsubr
          hintmask 11111111
          225 43 4 callsubr
        </CharString>
        <CharString name="Utilde">
          96 callgsubr
          hintmask 11011010
          -103 callgsubr
          hintmask 11101100
          286 54 rmoveto
          hintmask 11011100
          34 callgsubr
          -53 hlineto
          hintmask 11101100
          27 callgsubr
          hintmask 11011010
          -85 callgsubr
          hintmask 11101100
          68 callgsubr
        </CharString>
        <CharString name="V">
          0 99 556 -20 hstem
          35 530 vstem
          242 hmoveto
          117 hlineto
          206 655 rlineto
          -102 hlineto
          -98 -341 -22 -76 -15 -64 -24 -75 rlinecurve
          -4 hlineto
          -23 75 -15 64 -22 76 -99 341 rcurveline
          -106 hlineto
          endchar
        </CharString>
        <CharString name="W">
          41 callgsubr
          hstem
          9 582 -98 callgsubr
          endchar
        </CharString>
        <CharString name="Wacute">
          41 callgsubr
          69 114 hstem
          9 582 -98 callgsubr
          430 163 -65 callgsubr
          endchar
        </CharString>
        <CharString name="Wcircumflex">
          41 callgsubr
          69 114 hstem
          9 582 -98 callgsubr
          226 49 -85 callsubr
          endchar
        </CharString>
        <CharString name="Wdieresis">
          41 callgsubr
          75 109 hstem
          156 109 70 109 -98 callgsubr
          201 55 -90 callsubr
        </CharString>
        <CharString name="Wgrave">
          41 callgsubr
          69 114 hstem
          9 582 -98 callgsubr
          267 49 -1 callgsubr
        </CharString>
        <CharString name="X">
          74 callsubr
          hstem
          45 510 vstem
          45 hmoveto
          105 hlineto
          90 165 17 33 17 33 19 40 rlinecurve
          4 hlineto
          20 -40 18 -33 18 -33 92 -165 rcurveline
          110 hlineto
          -194 333 182 322 rlineto
          -106 hlineto
          -82 -156 -16 -30 -13 -29 -18 -39 rlinecurve
          -4 hlineto
          -20 39 -15 29 -16 30 -85 156 rcurveline
          -111 hlineto
          182 -317 rlineto
          endchar
        </CharString>
        <CharString name="Y">
          74 callsubr
          hstem
          250 100 vstem
          -98 callsubr
          endchar
        </CharString>
        <CharString name="Yacute">
          74 callsubr
          70 114 hstem
          250 100 vstem
          -98 callsubr
          189 589 -65 callgsubr
          endchar
        </CharString>
        <CharString name="Ycircumflex">
          74 callsubr
          70 114 hstem
          250 100 vstem
          -98 callsubr
          -15 475 -85 callsubr
          endchar
        </CharString>
        <CharString name="Ydieresis">
          74 callsubr
          76 147 callgsubr
          hintmask 11101000
          -98 callsubr
          hintmask 11110100
          -40 481 -90 callsubr
        </CharString>
        <CharString name="Ygrave">
          74 callsubr
          70 114 hstem
          250 100 vstem
          -98 callsubr
          26 475 -1 callgsubr
        </CharString>
        <CharString name="Z">
          0 84 488 84 hstem
          63 478 -60 callgsubr
          endchar
        </CharString>
        <CharString name="Zacute">
          0 84 488 84 49 114 hstem
          63 478 -60 callgsubr
          391 759 -65 callgsubr
          endchar
        </CharString>
        <CharString name="Zcaron">
          0 84 488 84 49 114 hstem
          63 478 -60 callgsubr
          317 759 rmoveto
          -63 -86 callgsubr
        </CharString>
        <CharString name="Zdotaccent">
          0 84 488 84 54 120 hstem
          251 128 -60 callgsubr
          252 650 -54 callgsubr
        </CharString>
        <CharString name="a">
          -40 callsubr
          94 callgsubr
          hintmask 10111000
          -97 callgsubr
          hintmask 01111000
          -104 callgsubr
          hintmask 10111000
          -104 callsubr
          endchar
        </CharString>
        <CharString name="a.a">
          -76 callsubr
          17 callsubr
          hintmask 10101100
          -107 callsubr
          hintmask 01011100
          -74 callsubr
          hintmask 10101100
          -100 callgsubr
          endchar
        </CharString>
        <CharString name="a.supa">
          -52 callgsubr
        </CharString>
        <CharString name="a.sups">
          -58 callsubr
        </CharString>
        <CharString name="aacute">
          -12 6 callsubr
          249 99 hintmask 10111100
          -97 callgsubr
          hintmask 01111100
          -104 callgsubr
          hintmask 10111100
          -104 callsubr
          266 590 -36 callsubr
          74 hlineto
          endchar
        </CharString>
        <CharString name="aacute.a">
          -76 callsubr
          104 153 17 callsubr
          hintmask 10101110
          -107 callsubr
          hintmask 01011110
          -74 callsubr
          hintmask 10101110
          -100 callgsubr
          378 482 -36 callsubr
          75 hlineto
          endchar
        </CharString>
        <CharString name="abreve">
          -40 callsubr
          74 138 callgsubr
          76 96 6 59 151 59 -26 99 hintmask 1010110010000000
          -97 callgsubr
          hintmask 0110110010000000
          -104 callgsubr
          hintmask 1010110010000000
          -104 callsubr
          hintmask 1010101100000000
          140 439 rmoveto
          91 40 72 67 168 callsubr
          hintmask 1011010100000000
          -43 -6 -23 -38 -47 hhcurveto
          hintmask 1010101010000000
          12 callgsubr
          hintmask 1010101100000000
          37 callsubr
        </CharString>
        <CharString name="abreve.a">
          -76 callsubr
          106 138 callgsubr
          56 102 16 59 151 59 -30 99 hintmask 1010011001000000
          -107 callsubr
          hintmask 0101011001000000
          -74 callsubr
          hintmask 1010011001000000
          -100 callgsubr
          hintmask 1010011110000000
          253 331 8 callsubr
          hintmask 1010101010000000
          54 callgsubr
          hintmask 1010011101000000
          -47 -23 38 43 -6 hvcurveto
          -59 hlineto
          hintmask 1010011110000000
          -67 4 40 -72 91 hhcurveto
          endchar
        </CharString>
        <CharString name="acircumflex">
          -12 6 callsubr
          249 99 hintmask 10111100
          -97 callgsubr
          hintmask 01111100
          -104 callgsubr
          hintmask 10111100
          -104 callsubr
          437 vmoveto
          -8 callgsubr
          endchar
        </CharString>
        <CharString name="acircumflex.a">
          -76 callsubr
          104 153 17 callsubr
          hintmask 10101110
          -107 callsubr
          hintmask 01011110
          -74 callsubr
          hintmask 10101110
          -100 callgsubr
          113 329 10 callsubr
        </CharString>
        <CharString name="acute">
          75 callgsubr
          231 195 vstem
          426 155 callgsubr
          endchar
        </CharString>
        <CharString name="adieresis">
          -40 callsubr
          83 122 hstemhm
          76 96 -20 121 79 120 -51 99 hintmask 10111001
          -97 callgsubr
          hintmask 01111001
          -104 callgsubr
          hintmask 10111001
          -104 callsubr
          hintmask 10110110
          41 448 rmoveto
          35 25 26 130 callgsubr
          -35 -36 33 callsubr
          36 hvcurveto
          199 hmoveto
          95 callgsubr
          endchar
        </CharString>
        <CharString name="adieresis.a">
          -76 callsubr
          115 122 hstemhm
          56 102 -9 120 79 121 -56 99 hintmask 1010110010000000
          -107 callsubr
          hintmask 0101110010000000
          -74 callsubr
          hintmask 1010110010000000
          -100 callgsubr
          hintmask 1010101100000000
          153 340 rmoveto
          36 24 26 35 34 -24 -43 callsubr
          199 hmoveto
          -57 callsubr
          endchar
        </CharString>
        <CharString name="ae">
          -12 79 152 63 141 78 hstem
          17 90 152 81 175 81 vstem
          17 132 rmoveto
          -87 50 -57 82 49 50 30 57 54 vhcurveto
          -54 32 47 -33 71 hhcurveto
          48 47 19 25 34 hvcurveto
          -35 65 rlineto
          -18 -27 -29 -12 -35 hhcurveto
          -70 -38 59 93 -6 hvcurveto
          250 hlineto
          3 16 2 18 21 vvcurveto
          122 -50 105 -99 -62 -44 -34 -58 -32 vhcurveto
          53 -19 -39 39 -62 hhcurveto
          -59 -54 -25 -28 -44 hvcurveto
          36 -66 rlineto
          21 32 47 18 33 hhcurveto
          56 21 -45 -65 2 hvcurveto
          -161 -26 -81 -55 -98 vvcurveto
          323 150 rmoveto
          90 6 38 51 54 hhcurveto
          59 18 -65 -76 hvcurveto
          -408 -145 rmoveto
          56 44 36 107 19 vhcurveto
          1 -24 1 -34 5 -35 9 -27 rlinecurve
          -40 -30 -40 -22 -30 hhcurveto
          -41 -26 25 46 hvcurveto
          endchar
        </CharString>
        <CharString name="agrave">
          -12 6 callsubr
          249 99 hintmask 10111100
          -97 callgsubr
          hintmask 01111100
          -104 callgsubr
          hintmask 10111100
          -104 callsubr
          135 437 159 callsubr
        </CharString>
        <CharString name="agrave.a">
          -76 callsubr
          104 153 17 callsubr
          hintmask 10101110
          -107 callsubr
          hintmask 01011110
          -74 callsubr
          hintmask 10101110
          -100 callgsubr
          248 329 -10 callgsubr
        </CharString>
        <CharString name="amacron">
          -40 callsubr
          97 67 hstemhm
          76 96 14 253 -18 99 hintmask 10111010
          -97 callgsubr
          hintmask 01111010
          -104 callgsubr
          hintmask 10111010
          -104 callsubr
          hintmask 10111100
          14 462 23 callsubr
        </CharString>
        <CharString name="amacron.a">
          -76 callsubr
          129 67 hstemhm
          56 102 24 253 -22 99 hintmask 10101101
          -107 callsubr
          hintmask 01011101
          -74 callsubr
          hintmask 10101101
          -100 callgsubr
          hintmask 10101110
          126 354 23 callsubr
        </CharString>
        <CharString name="ampersand">
          -12 78 532 69 hstemhm
          37 95 -20 84 121 78 hintmask 11101000
          132 177 rmoveto
          45 26 36 36 33 vhcurveto
          43 -65 55 -63 60 -52 rrcurveto
          -28 -32 -35 -17 -37 hhcurveto
          -65 -51 44 67 hvcurveto
          hintmask 11011000
          64 332 rmoveto
          52 25 37 40 41 15 -30 -36 -54 -42 -37 -52 -37 vhcurveto
          -17 37 -10 35 33 vvcurveto
          383 -440 rmoveto
          -32 10 -37 19 -38 28 46 69 34 78 22 85 rrcurveto
          -91 hlineto
          -17 -71 -25 -61 -33 -50 -56 48 -55 59 -39 60 rrcurveto
          67 52 70 54 84 vvcurveto
          79 -49 55 -86 -90 -58 -71 -88 -46 16 -52 27 -54 vhcurveto
          hintmask 11101000
          -62 -45 -56 -54 -86 vvcurveto
          -104 78 -79 122 73 58 28 44 48 vhcurveto
          48 -35 46 -24 44 -13 rrcurveto
          endchar
        </CharString>
        <CharString name="aogonek">
          -207 63 132 -55 callsubr
          hstemhm
          76 96 191 70 -12 99 hintmask 11011010
          -97 callgsubr
          9 -61 rlineto
          hintmask 11011100
          -35 -22 -42 -45 -55 vvcurveto
          58 callgsubr
          hvcurveto
          hintmask 10111010
          37 30 42 57 21 vhcurveto
          294 vlineto
          129 -69 78 -135 -85 -81 -36 -33 -54 vhcurveto
          37 -67 rlineto
          28 48 58 27 60 hhcurveto
          87 32 -49 -60 3 hvcurveto
          hintmask 11011010
          -104 callsubr
          endchar
        </CharString>
        <CharString name="aogonek.a">
          -207 63 132 -72 callsubr
          hstemhm
          56 102 197 70 -12 99 hintmask 11010101
          -107 callsubr
          9 -58 rlineto
          hintmask 11010110
          -39 -27 -38 -40 -55 vvcurveto
          -47 callgsubr
          15 29 hvcurveto
          hintmask 10101101
          37 27 37 60 26 vhcurveto
          489 -78 vlineto
          hintmask 11010101
          -100 callgsubr
          endchar
        </CharString>
        <CharString name="approxequal">
          143 72 10 73 64 73 10 72 hstemhm
          70 460 hintmask 10011000
          132 359 rmoveto
          66 22 27 20 30 56 40 -83 80 hhcurveto
          hintmask 10111000
          54 52 34 103 callgsubr
          hintmask 11011000
          -54 -52 -34 -96 -37 hvcurveto
          62 -247 153 callsubr
          hintmask 10011000
          54 52 34 95 37 hvcurveto
          -62 29 rlineto
          -67 -22 -26 -19 -31 -56 -40 83 -80 hhcurveto
          hintmask 11011000
          -54 -52 -34 -97 -37 hvcurveto
          endchar
        </CharString>
        <CharString name="aring">
          -40 callsubr
          43 41 107 41 hstemhm
          76 96 42 52 92 53 10 99 hintmask 1011111010000000
          -97 callgsubr
          hintmask 0111111010000000
          -104 callgsubr
          hintmask 1011111010000000
          -104 callsubr
          hintmask 1011111110000000
          140 408 rmoveto
          58 41 38 57 56 -41 38 -58 -57 -41 -38 -56 -57 41 -38 57 hvcurveto
          41 vmoveto
          -25 -21 21 33 32 21 21 25 26 20 -21 -32 -33 -20 -21 -26 hvcurveto
          endchar
        </CharString>
        <CharString name="aring.a">
          -76 callsubr
          75 41 107 41 hstemhm
          56 102 52 53 92 52 6 99 hintmask 1010111101000000
          -107 callsubr
          hintmask 0101111101000000
          -74 callsubr
          hintmask 1010111101000000
          -100 callgsubr
          hintmask 1010111110000000
          253 300 rmoveto
          57 41 38 57 56 -41 38 -57 -58 -41 -38 -56 -57 41 -38 151 callgsubr
          21 33 32 20 21 26 25 21 -21 -32 -33 -21 -21 -25 hvcurveto
          endchar
        </CharString>
        <CharString name="arrowdown">
          -25 553 hstem
          260 80 vstem
          302 -25 rmoveto
          266 274 -55 49 -173 -188 rlineto
          418 -80 -418 vlineto
          -173 188 -55 -49 266 -274 rlineto
          endchar
        </CharString>
        <CharString name="arrowup">
          -25 553 hstem
          260 80 vstem
          298 528 rmoveto
          -266 -274 55 -49 173 188 rlineto
          -418 80 418 vlineto
          173 -188 55 49 -266 274 rlineto
          endchar
        </CharString>
        <CharString name="asciicircum">
          579 91 hstem
          105 390 vstem
          105 281 rmoveto
          84 hlineto
          61 164 48 134 rlineto
          4 hlineto
          48 -134 61 -164 rlineto
          84 hlineto
          -153 389 rlineto
          -84 hlineto
          endchar
        </CharString>
        <CharString name="asciitilde">
          253 72 10 72 hstemhm
          70 460 vstemhm
          132 250 153 callsubr
          hintmask 10100000
          54 52 33 103 callgsubr
          hintmask 11100000
          -54 -52 -33 -97 -37 hvcurveto
          endchar
        </CharString>
        <CharString name="asterisk">
          106 453 hstem
          267.5 65 vstem
          181 106 rmoveto
          119 155 119 -155 48 33 -106 163 160 70 -17 52 -167 -52 -9 187 rlineto
          -56 hlineto
          -9 -187 -167 52 -17 -52 160 -70 -106 -163 rlineto
          endchar
        </CharString>
        <CharString name="asterisk.a">
          307 405 hstem
          267.5 65 vstem
          198 307 rmoveto
          102 136 102 -136 48 33 -89 145 140 56 -17 53 -147 -40 -9 158 rlineto
          -56 hlineto
          -9 -159 -147 41 -17 -53 140 -56 -89 -145 rlineto
          endchar
        </CharString>
        <CharString name="at">
          -145 64 169 68 418 148 callgsubr
          398 rmoveto
          135 -65 105 -142 -165 -130 -128 -259 -261 137 -135 78 callsubr
          116 213 220 106 106 113 101 44 -77 -90 hvcurveto
          -14 109 callgsubr
          37 28 vhcurveto
          4 hlineto
          8 -56 30 callsubr
        </CharString>
        <CharString name="at.case">
          -20 64 114 68 377 148 callgsubr
          459 rmoveto
          114 -65 94 -138 -165 -134 -113 -233 -225 137 -116 78 callsubr
          97 177 195 109 90 114 97 44 -60 -70 hvcurveto
          -10 109 callgsubr
          38 28 vhcurveto
          4 hlineto
          8 -57 30 callsubr
        </CharString>
        <CharString name="atilde">
          -40 callsubr
          77 168 callgsubr
          76 96 -9 130 callsubr
          -40 99 hintmask 1010110010000000
          -97 callgsubr
          hintmask 0110110010000000
          -104 callgsubr
          hintmask 1010110010000000
          -104 callsubr
          hintmask 1010101010000000
          -9 442 rmoveto
          54 hlineto
          38 7 13 16 21 28 callgsubr
          -30 -29 46 callsubr
        </CharString>
        <CharString name="atilde.a">
          -76 callsubr
          109 168 callgsubr
          56 102 2 130 callsubr
          -45 99 hintmask 1010011001000000
          -107 callsubr
          hintmask 0101011001000000
          -74 callsubr
          hintmask 1010011001000000
          -100 callgsubr
          hintmask 1010010101000000
          104 334 8 callgsubr
          hintmask 1010101010000000
          31 28 -54 49 hhcurveto
          hintmask 1010011010000000
          -37 callsubr
          hintmask 1010101010000000
          -37 -7 -13 -17 -21 hhcurveto
          hintmask 1010010101000000
          -34 callsubr
          endchar
        </CharString>
        <CharString name="b">
          -12 -62 callgsubr
          208 -20 hstemhm
          88 99 255 102 hintmask 01111100
          88 hmoveto
          78 hlineto
          hintmask 10111100
          124 callsubr
          97 167 151 -73 98 -129 -55 -59 -28 -42 -44 hvcurveto
          3 90 rlineto
          188 -99 vlineto
          99 -588 rmoveto
          95 callsubr
          -77 -32 -46 14 37 -41 hvcurveto
          endchar
        </CharString>
        <CharString name="b.sups">
          126 callgsubr
          167 260 rmoveto
          59 hlineto
          7 33 rlineto
          1 hlineto
          -26 29 34 -15 32 hhcurveto
          75 70 64 111 100 -49 65 -86 -35 -36 -17 -24 -29 hvcurveto
          2 54 rlineto
          122 -74 vlineto
          74 -387 rmoveto
          154 vlineto
          25 28 25 84 callsubr
        </CharString>
        <CharString name="backslash">
          -160 870 hstem
          93 414 vstem
          421 -160 rmoveto
          86 hlineto
          -328 870 rlineto
          -86 hlineto
          endchar
        </CharString>
        <CharString name="bar">
          156 callsubr
          -250 rmoveto
          88 1000 -88 hlineto
          endchar
        </CharString>
        <CharString name="braceleft">
          180 callgsubr
          116 129 5 89 hintmask 11101000
          250 -16 rmoveto
          -105 59 -31 126 vhcurveto
          65 56 -49 hlineto
          -97 -21 22 63 hvcurveto
          59 6 51 66 vvcurveto
          67 -24 32 -70 12 vhcurveto
          4 vlineto
          70 12 24 32 67 61 -6 59 56 vvcurveto
          63 21 22 97 vhcurveto
          49 56 -65 hlineto
          -126 -59 -31 -105 hvcurveto
          -69 9 -55 -63 vvcurveto
          hintmask 11110000
          -38 -27 -38 -116 -1 vhcurveto
          -60 vlineto
          hintmask 11101000
          116 -1 27 -38 -38 -67 -9 -48 -72 vvcurveto
          endchar
        </CharString>
        <CharString name="braceright">
          180 callgsubr
          262 88 5 129 hintmask 11110000
          100 -96 rmoveto
          -56 65 vlineto
          127 58 31 105 hvcurveto
          72 -9 48 67 vvcurveto
          hintmask 11101000
          38 27 38 116 1 vhcurveto
          60 vlineto
          hintmask 11110000
          -116 1 -27 38 38 63 9 55 69 vvcurveto
          105 -58 31 -127 vhcurveto
          -65 -56 49 hlineto
          97 22 -22 -63 hvcurveto
          -56 -6 -59 -61 vvcurveto
          -67 23 -32 70 -12 vhcurveto
          -4 vlineto
          -70 -12 -23 -32 -67 -66 6 -51 -59 vvcurveto
          -63 -22 -22 -97 vhcurveto
          endchar
        </CharString>
        <CharString name="bracketleft">
          -152 56 748 56 hstem
          219 78 vstem
          219 -152 rmoveto
          281 56 -203 748 203 56 -281 hlineto
          endchar
        </CharString>
        <CharString name="bracketright">
          -152 56 748 56 hstem
          303 78 vstem
          100 -96 rmoveto
          -56 281 860 -281 -56 203 -748 vlineto
          endchar
        </CharString>
        <CharString name="breve">
          -4 callgsubr
        </CharString>
        <CharString name="brokenbar">
          156 callsubr
          296 rmoveto
          88 454 -88 hlineto
          -539 vmoveto
          -461 88 461 vlineto
          endchar
        </CharString>
        <CharString name="bullet">
          111 302 hstem
          147 306 vstem
          300 111 rmoveto
          83 70 62 89 89 -70 62 -83 -83 -70 -62 -89 -89 70 -62 83 hvcurveto
          endchar
        </CharString>
        <CharString name="c">
          44 callsubr
          hstem
          76 102 -93 callsubr
          endchar
        </CharString>
        <CharString name="c.sups">
          252 60 220 60 hstem
          178 76 vstem
          178 421 rmoveto
          -107 73 -62 95 42 41 15 27 33 vhcurveto
          -31 47 rlineto
          -15 -20 -26 -14 -31 hhcurveto
          -60 -40 44 65 66 42 45 60 24 21 -9 -16 19 hvcurveto
          36 47 rlineto
          21 -24 -34 17 -46 hhcurveto
          -92 -82 -63 -108 hvcurveto
          endchar
        </CharString>
        <CharString name="cacute">
          44 callsubr
          72 153 hstem
          76 102 -93 callsubr
          392 482 -36 callsubr
          75 hlineto
          endchar
        </CharString>
        <CharString name="caron">
          75 callgsubr
          160 280 vstem
          258 573 rmoveto
          84 -63 callgsubr
          -63 98 rlineto
          -75 hlineto
          endchar
        </CharString>
        <CharString name="ccaron">
          44 callsubr
          72 153 hstem
          76 102 -93 callsubr
          224 329 rmoveto
          85 -63 callgsubr
          -64 56 callgsubr
        </CharString>
        <CharString name="ccedilla">
          -215 46 159 79 350 82 hstem
          76 102 161 75 vstem
          373 -11 rmoveto
          61 6 59 26 48 42 -42 64 rcurveline
          -32 -39 -48 -26 -59 hhcurveto
          -104 -71 70 105 105 73 70 105 48 40 -19 -32 39 hvcurveto
          48 63 rlineto
          39 -40 -60 31 -80 hhcurveto
          -148 -127 -94 -163 -149 99 -92 135 -13 hvcurveto
          -33 -65 rlineto
          -12 callsubr
          endchar
        </CharString>
        <CharString name="ccircumflex">
          44 callsubr
          72 153 hstem
          76 102 -93 callsubr
          126 329 rmoveto
          75 84 callgsubr
        </CharString>
        <CharString name="cdotaccent">
          44 callsubr
          81 141 hstem
          76 102 91 148 -93 callsubr
          267 338 -18 callsubr
        </CharString>
        <CharString name="cedilla">
          164 callsubr
          303 75 vstem
          241 -75 rmoveto
          -12 callsubr
          24 51 rlineto
          -62 hlineto
          endchar
        </CharString>
        <CharString name="cent">
          -35 689 -588 81 325 82 hstemhm
          109 97 107 59 hintmask 10011000
          313 152 rmoveto
          -68 18 -39 57 82 vvcurveto
          81 40 57 67 19 vhcurveto
          hintmask 01111000
          155 -276 rmoveto
          -25 -21 -32 -19 -39 -3 rrcurveto
          325 vlineto
          31 -3 26 -13 25 -22 47 62 rcurveline
          -31 29 -41 25 -57 4 rrcurveto
          100 -59 -103 vlineto
          -116 -18 -88 -85 -139 vvcurveto
          -142 82 -85 122 -15 vhcurveto
          -102 59 101 vlineto
          50 5 49 22 39 35 rrcurveto
          endchar
        </CharString>
        <CharString name="circumflex">
          75 callgsubr
          160 280 vstem
          160 573 rmoveto
          75 hlineto
          63 32 callsubr
        </CharString>
        <CharString name="colon">
          -12 186 163 99 callgsubr
          430 rmoveto
          -54 39 -39 51 51 39 39 54 54 -39 39 -51 -51 -39 -39 -54 vhcurveto
          -349 vmoveto
          -11 callsubr
        </CharString>
        <CharString name="colonmonetary">
          -11 79 -58 -21 30 -21 573 78 -5 -20 21 -20 hstemhm
          92 101 131 41 -37 41 hintmask 1001001010000000
          350 570 rmoveto
          1 5 6 0 5 hhcurveto
          13 12 -2 -3 11 hvcurveto
          -59 -498 -18 2 -18 5 -15 9 rlinecurve
          -37 29 rmoveto
          -40 43 -22 71 93 vvcurveto
          126 40 86 75 29 vhcurveto
          185 -428 rmoveto
          -32 -37 -34 -22 -43 -6 57 482 rcurveline
          16 -10 14 -11 13 -13 57 55 rcurveline
          hintmask 0011001100000000
          -24 27 -31 22 -35 13 14 114 rcurveline
          -41 hlineto
          hintmask 0010011100000000
          -12 -102 rlineto
          hintmask 0011001100000000
          3 -13 -14 1 -13 -4 -4 0 -5 hhcurveto
          12 98 rlineto
          -41 hlineto
          hintmask 0010101100000000
          -12 -103 rlineto
          -139 -24 -87 -119 -184 vvcurveto
          -152 58 -106 93 -46 vhcurveto
          hintmask 0010011010000000
          -15 -123 rlineto
          41 hlineto
          13 108 rlineto
          hintmask 0100011010000000
          16 -5 18 -3 18 -1 -12 -99 rcurveline
          41 hlineto
          12 99 72 4 56 34 47 54 rlinecurve
          endchar
        </CharString>
        <CharString name="comma">
          5 165 hstem
          320 84 vstem
          220 -214 rmoveto
          19 callgsubr
        </CharString>
        <CharString name="comma.dnom">
          0 91 callgsubr
          -120 -32 callgsubr
        </CharString>
        <CharString name="comma.numr">
          265 91 callgsubr
          146 rmoveto
          65 22 38 50 64 vvcurveto
          51 -21 28 -37 -28 -23 -20 -29 -31 24 -16 26 vhcurveto
          2 2 0 2 hhcurveto
          -38 -25 -25 -42 -15 vhcurveto
          endchar
        </CharString>
        <CharString name="comma.subs">
          -170 91 callgsubr
          -290 -32 callgsubr
        </CharString>
        <CharString name="comma.sups">
          440 91 callgsubr
          320 -32 callgsubr
        </CharString>
        <CharString name="copyright">
          -10 46 90 63 261 63 95 46 hstem
          27 51 66 77 301 51 vstem
          27 324 -35 callsubr
          66 -1 rmoveto
          -123 72 -74 93 49 33 19 26 31 vhcurveto
          -35 49 rlineto
          -17 -22 -21 -14 -32 hhcurveto
          -56 -35 51 83 74 37 53 58 25 17 -11 -18 20 hvcurveto
          40 45 rlineto
          26 -27 -31 21 -49 hhcurveto
          -88 -79 -73 -117 hvcurveto
          endchar
        </CharString>
        <CharString name="currency">
          133 72 249 72 hstem
          100 90 220 90 vstem
          104 78 rmoveto
          88 89 rlineto
          -22 31 38 -12 39 hhcurveto
          38 39 12 22 31 hvcurveto
          88 -89 52 52 -84 84 rlineto
          22 31 14 39 45 vvcurveto
          46 -13 39 -23 30 vhcurveto
          84 85 -52 52 -88 -89 rlineto
          22 -31 -38 12 -39 hhcurveto
          -39 -38 -12 -22 -31 hvcurveto
          -88 89 -52 -52 83 -85 rlineto
          -22 -30 -13 -39 -46 vvcurveto
          -45 13 -39 22 -31 vhcurveto
          -83 -84 rlineto
          138 199 rmoveto
          75 49 50 61 61 49 -50 -75 -75 -49 -49 -61 -61 -49 49 75 vhcurveto
          endchar
        </CharString>
        <CharString name="d">
          -12 -62 callgsubr
          208 -20 17 callsubr
          hintmask 10111100
          56 -2 callgsubr
          hintmask 01111100
          -14 callgsubr
          hintmask 10111100
          -75 callsubr
          endchar
        </CharString>
        <CharString name="d.sups">
          16 callsubr
          135 421 rmoveto
          -107 55 -62 84 37 36 20 24 26 vhcurveto
          2 hlineto
          6 -36 rlineto
          61 467 -75 -119 hlineto
          3 -52 rlineto
          22 -27 -25 14 14 callgsubr
        </CharString>
        <CharString name="dagger">
          475 76 161 -20 hstem
          262 76 vstem
          259 -80 rmoveto
          82 hlineto
          -6 558 148 -6 58 callsubr
          6 rlineto
          endchar
        </CharString>
        <CharString name="daggerdbl">
          81 75 320 75 161 -20 hstem
          262 76 vstem
          117 78 rmoveto
          148 6 -6 -164 rlineto
          82 hlineto
          -6 164 148 -6 rlineto
          82 vlineto
          -148 -8 6 164 -6 164 148 -8 58 callsubr
          8 -6 -164 6 -164 -148 8 rlineto
          endchar
        </CharString>
        <CharString name="dcaron">
          -12 -62 callgsubr
          47 161 -161 215 hstemhm
          43 102 255 99 40 166 callgsubr
          hintmask 10110111
          43 -2 callgsubr
          hintmask 01110111
          -14 callgsubr
          hintmask 10110111
          -75 callsubr
          443 303 rmoveto
          hintmask 10101111
          16 154 1 61 rlineto
          -68 hlineto
          hintmask 10110111
          4 -215 rlineto
          endchar
        </CharString>
        <CharString name="dcroat">
          -12 82 -49 -21 398 83 86 54 -54 142 17 callsubr
          hintmask 10101110
          413 136 rmoveto
          -44 -38 -41 -22 -44 hhcurveto
          -83 -49 60 105 99 63 64 77 38 38 -14 -36 39 hvcurveto
          hintmask 10110110
          170 273 rmoveto
          -71 hlineto
          hintmask 10101110
          88 -99 vlineto
          hintmask 10110110
          -88 -168 vlineto
          hintmask 10101110
          -54 168 -60 vlineto
          4 -87 rlineto
          38 -42 -41 23 -59 hhcurveto
          -113 -106 -94 -153 -156 84 -90 127 58 56 33 39 39 hvcurveto
          3 hlineto
          hintmask 01101110
          8 -60 rlineto
          81 567 hlineto
          hintmask 10110110
          71 5 rlineto
          endchar
        </CharString>
        <CharString name="degree">
          421 52 160 52 hstem
          170 57 147 57 vstem
          300 421 rmoveto
          71 60 53 78 80 -60 53 -71 -70 -60 -53 -80 -78 60 -53 70 hvcurveto
          52 vmoveto
          -43 -30 33 46 48 30 33 43 44 30 -33 -48 -46 -30 -33 -44 hvcurveto
          endchar
        </CharString>
        <CharString name="dieresis">
          584 122 hstem
          140 139 callgsubr
          vstem
          200 584 -90 callgsubr
        </CharString>
        <CharString name="divide">
          90 119 85 72 84 119 hstem
          239 122 vstem
          300 450 rmoveto
          147 callsubr
          -36 26 -24 35 hvcurveto
          -61 -300 rmoveto
          -36 26 -24 35 147 callsubr
          vhcurveto
          -158 144 rmoveto
          438 72 -438 hlineto
          endchar
        </CharString>
        <CharString name="dollar">
          35 80 422 80 hstem
          108 96 67 69 78 97 vstem
          499 539 rmoveto
          -40 40 -47 31 -72 7 rrcurveto
          130 -69 -131 vlineto
          -98 -12 -65 -58 -85 -176 310 20 -113 vvcurveto
          -46 -38 -31 -70 -72 -60 30 37 -53 vhcurveto
          -45 -68 47 -41 73 -31 71 -7 rlinecurve
          -145 69 147 vlineto
          107 13 68 63 86 183 -311 -19 100 vvcurveto
          46 38 28 61 64 35 -21 -35 46 vhcurveto
          endchar
        </CharString>
        <CharString name="dollar.a">
          34 81 422 81 hstem
          103 96 224 96 vstem
          330 277 rmoveto
          52 -21 41 -24 -40 vvcurveto
          -46 -38 -31 -71 vhcurveto
          -5 -5 0 -4 hhcurveto
          -15 275 rmoveto
          -49 19 -37 20 34 vvcurveto
          46 38 28 61 vhcurveto
          5 5 0 4 hhcurveto
          63 -13 rmoveto
          25 -10 22 -14 26 -19 51 58 rcurveline
          -30 29 -34 24 -44 14 25 137 rcurveline
          -64 8 -25 -134 rlineto
          1 -7 -7 0 -8 hhcurveto
          -119 -83 -61 -96 -90 84 -39 81 -31 hvcurveto
          -32 -174 -40 12 -37 20 -34 23 rlinecurve
          -45 -68 36 -31 51 -25 54 -14 rlinecurve
          -28 -150 64 -8 28 149 rlineto
          -1 5 6 0 6 hhcurveto
          132 85 68 97 96 -89 41 -84 31 hvcurveto
          endchar
        </CharString>
        <CharString name="dong">
          0 55 57 69 229 70 64 55 hstem
          105 86 199 83 vstem
          117 hmoveto
          388 55 -388 hlineto
          273 174 rmoveto
          -34 -32 -31 -14 -36 hhcurveto
          -63 -37 43 77 63 48 46 56 37 25 -11 -26 33 hvcurveto
          83 226 rmoveto
          62 -83 -62 -155 -55 155 -30 vlineto
          4 -78 rlineto
          28 -34 -30 16 -51 hhcurveto
          -89 -85 -68 -111 -122 66 -67 101 51 41 21 30 31 hvcurveto
          3 hlineto
          7 -41 rlineto
          68 422 hlineto
          77 5 rlineto
          50 vlineto
          endchar
        </CharString>
        <CharString name="dotaccent">
          582 176 callsubr
          582 -79 callsubr
        </CharString>
        <CharString name="dotlessi">
          88 callgsubr
          hstem
          306 99 vstem
          -74 callgsubr
          endchar
        </CharString>
        <CharString name="e">
          -28 callgsubr
          hstem
          65 102 281 92 vstem
          -107 callgsubr
          endchar
        </CharString>
        <CharString name="e.sups">
          252 57 94 47 85 57 -78 callgsubr
          endchar
        </CharString>
        <CharString name="eacute">
          -28 callgsubr
          72 153 hstem
          65 102 281 92 vstem
          -107 callgsubr
          -8 439 -36 callsubr
          74 hlineto
          endchar
        </CharString>
        <CharString name="eacute.sups">
          252 57 94 47 85 57 46 104 -78 callgsubr
          10 292 rmoveto
          -78 hlineto
          -61 -104 rlineto
          56 hlineto
          endchar
        </CharString>
        <CharString name="ebreve">
          -28 callgsubr
          74 138 callgsubr
          65 102 13 59 150 60 -1 92 hintmask 1110110010000000
          -107 callgsubr
          hintmask 1110111100000000
          -134 288 rmoveto
          91 39 72 67 5 hvcurveto
          -60 hlineto
          hintmask 1111010100000000
          54 callgsubr
          hintmask 1110111010000000
          12 callgsubr
          hintmask 1110111100000000
          37 callsubr
        </CharString>
        <CharString name="ecaron">
          -28 callgsubr
          72 153 hstem
          65 102 281 92 vstem
          -107 callgsubr
          -176 286 rmoveto
          84 -63 callgsubr
          -63 98 rlineto
          -75 hlineto
          endchar
        </CharString>
        <CharString name="ecircumflex">
          -28 callgsubr
          72 153 hstem
          65 102 281 92 vstem
          -107 callgsubr
          -274 286 rmoveto
          75 hlineto
          63 32 callsubr
        </CharString>
        <CharString name="edieresis">
          -28 callgsubr
          83 122 hstemhm
          65 102 -13 139 callgsubr
          -26 92 hintmask 11101001
          -107 callgsubr
          hintmask 11110110
          -234 297 -90 callgsubr
        </CharString>
        <CharString name="edotaccent">
          -28 callgsubr
          81 141 hstem
          65 102 73 148 60 92 vstem
          -107 callgsubr
          -134 295 -79 callsubr
        </CharString>
        <CharString name="egrave">
          -28 callgsubr
          72 153 hstem
          65 102 281 92 vstem
          -107 callgsubr
          -139 286 rmoveto
          75 hlineto
          -91 153 rlineto
          -105 hlineto
          endchar
        </CharString>
        <CharString name="egrave.sups">
          252 57 94 47 85 57 46 104 -78 callgsubr
          -87 188 rmoveto
          56 hlineto
          -60 104 rlineto
          -78 hlineto
          endchar
        </CharString>
        <CharString name="eight">
          -73 callgsubr
        </CharString>
        <CharString name="eight.dnom">
          -12 -9 callgsubr
          82 -91 callgsubr
        </CharString>
        <CharString name="eight.numr">
          318 -9 callgsubr
          412 rmoveto
          21 15 21 27 12 vhcurveto
          41 -12 37 -11 -33 vvcurveto
          -24 -29 -17 -31 -33 -27 18 25 vhcurveto
          hintmask 11011000
          78 100 rmoveto
          -37 11 -30 13 25 vvcurveto
          21 20 15 29 32 18 -16 -22 -17 -9 -17 -23 -13 vhcurveto
          hintmask 11100100
          -146 -105 rmoveto
          -48 52 -41 76 73 55 40 49 45 -28 21 -35 16 vhcurveto
          4 vlineto
          hintmask 11011000
          27 14 26 20 36 vvcurveto
          51 -51 35 -67 -63 -54 -35 -51 -37 24 -16 29 -19 vhcurveto
          -4 vlineto
          hintmask 11100100
          -32 -16 -32 -22 -42 vvcurveto
          endchar
        </CharString>
        <CharString name="eight.onum">
          -73 callgsubr
        </CharString>
        <CharString name="eight.subs">
          -182 -9 callgsubr
          -88 -91 callgsubr
        </CharString>
        <CharString name="eight.sups">
          428 -9 callgsubr
          522 -91 callgsubr
        </CharString>
        <CharString name="ellipsis">
          -12 161 hstem
          23 151 51 150 51 151 vstem
          23 68 rmoveto
          -46 33 159 callgsubr
          -33 -33 -48 vhcurveto
          202 hmoveto
          -46 32 159 callgsubr
          -32 -33 -48 vhcurveto
          201 hmoveto
          -46 32 -34 43 43 33 34 46 48 -33 33 -43 -43 -32 -33 -48 vhcurveto
          endchar
        </CharString>
        <CharString name="emacron">
          -28 callgsubr
          97 67 hstemhm
          65 102 21 253 7 92 hintmask 11111010
          -107 callgsubr
          hintmask 11111100
          -260 311 23 callsubr
        </CharString>
        <CharString name="emdash">
          80 callgsubr
        </CharString>
        <CharString name="endash">
          81 callgsubr
        </CharString>
        <CharString name="eogonek">
          -207 63 132 -56 callgsubr
          hstem
          65 102 168 69 44 92 vstem
          485 108 rmoveto
          -26 -44 -45 -16 -53 hhcurveto
          -98 -72 57 96 -6 hvcurveto
          368 hlineto
          2 12 3 19 20 vvcurveto
          136 -82 95 -143 -127 -123 -97 -160 -161 118 -95 147 23 18 1 9 28 vhcurveto
          -29 -24 -35 -43 -51 vvcurveto
          -58 40 -50 callgsubr
          -12 -12 -5 -15 hhcurveto
          -24 -22 15 29 43 25 38 91 64 hvcurveto
          -354 242 rmoveto
          87 13 65 49 73 hhcurveto
          84 47 -49 -87 hvcurveto
          endchar
        </CharString>
        <CharString name="equal">
          184 73 146 73 hstem
          81 438 vstem
          81 403 rmoveto
          120 callgsubr
          -292 vmoveto
          120 callgsubr
          endchar
        </CharString>
        <CharString name="estimated">
          -12 20 308 18 306 20 hstem
          26 130 290 128 vstem
          164 68 rmoveto
          -4 6 -4 6 8 vvcurveto
          224 vlineto
          2 2 2 2 vhcurveto
          414 hlineto
          2 0 4 2 vvcurveto
          186 -123 150 -151 -151 -123 -150 -186 -186 123 -150 151 90 78 52 80 54 vhcurveto
          -38 hlineto
          -68 -46 -66 -44 -70 hhcurveto
          -54 -50 22 38 -34 hvcurveto
          -4 266 rmoveto
          -2 -2 2 4 hvcurveto
          220 vlineto
          7 4 9 4 6 vhcurveto
          36 34 50 22 54 hhcurveto
          50 50 -20 -34 34 hvcurveto
          6 -6 4 -8 -8 vvcurveto
          -224 vlineto
          -4 -2 -2 -4 vhcurveto
          endchar
        </CharString>
        <CharString name="eth">
          -12 81 304 76 267 -20 hstem
          56 93 296 95 vstem
          300 69 rmoveto
          -83 -68 60 95 89 52 60 99 49 52 -20 -56 43 hvcurveto
          1 -13 0 -14 -15 vvcurveto
          -112 -48 -74 -97 vhcurveto
          212 599 rmoveto
          -28 48 -135 -69 -44 34 -50 28 -53 24 rlinecurve
          -45 -62 42 -20 38 -21 34 -23 rlinecurve
          -130 -66 28 -48 150 77 57 -51 39 -61 18 -82 rlinecurve
          47 -35 -57 26 -58 hhcurveto
          -128 -99 -87 -138 -146 113 -90 128 150 93 111 161 158 -58 110 -86 81 hvcurveto
          endchar
        </CharString>
        <CharString name="exclam">
          -12 167 -146 -21 132 callgsubr
          267 238 rmoveto
          66 hlineto
          13 328 3 104 rlineto
          -98 hlineto
          3 -104 rlineto
          hintmask 01100000
          -34 -494 178 callsubr
          hintmask 10100000
          50 -36 33 -44 vhcurveto
          hintmask 01100000
          -44 -36 -33 -50 hvcurveto
          endchar
        </CharString>
        <CharString name="exclamdown">
          334 167 0 -20 132 callgsubr
          333 250 rmoveto
          -66 hlineto
          -13 -328 -3 -103 rlineto
          98 hlineto
          -3 103 rlineto
          hintmask 01100000
          34 495 176 callgsubr
          hintmask 10100000
          -51 36 -32 44 vhcurveto
          hintmask 01100000
          44 36 32 51 hvcurveto
          endchar
        </CharString>
        <CharString name="f">
          88 callgsubr
          153 79 hstem
          235 98 vstem
          580 693 rmoveto
          18 -45 -48 10 -50 hhcurveto
          -139 -63 -81 -117 hvcurveto
          -34 vlineto
          -137 -5 rlineto
          -75 137 -409 98 409 195 80 -195 36 vlineto
          74 34 43 81 41 32 -6 -16 37 vhcurveto
          endchar
        </CharString>
        <CharString name="f.sups">
          525 59 92 59 hstem
          272 73 vstem
          504 718 rmoveto
          10 -29 -31 7 -34 hhcurveto
          -95 -43 -54 -77 hvcurveto
          -20 vlineto
          -78 -3 rlineto
          -56 78 -265 73 265 124 59 -124 22 vlineto
          43 22 27 51 26 22 -4 -9 23 vhcurveto
          endchar
        </CharString>
        <CharString name="fi">
          88 callgsubr
          93 142 -82 79 hstemhm
          106 99 180 153 -126 99 hintmask 11011010
          106 132 callsubr
          100 80 -100 64 vlineto
          60 22 29 44 133 callgsubr
          -33 hhcurveto
          -107 -46 -68 -101 hvcurveto
          306 -552 rmoveto
          99 489 -99 hlineto
          hintmask 11101100
          49 235 rmoveto
          -43 -33 -29 -42 -42 33 -29 43 44 33 29 42 42 -33 29 -44 hvcurveto
          endchar
        </CharString>
        <CharString name="figuredash">
          81 callgsubr
        </CharString>
        <CharString name="five">
          -12 81 263 73 148 84 105 callgsubr
          76 149 callsubr
          79 139 137 -99 62 -120 -44 -31 -9 -14 -34 hvcurveto
          15 171 rlineto
          282 84 -369 hlineto
          -20 -310 50 -32 173 callgsubr
          -82 -83 -67 -51 -85 -79 -51 34 37 -42 hvcurveto
          endchar
        </CharString>
        <CharString name="five.dnom">
          -12 57 104 45 -7 callgsubr
          39 -70 callsubr
        </CharString>
        <CharString name="five.numr">
          318 57 105 44 -7 callgsubr
          369 rmoveto
          -34 39 40 -17 52 hhcurveto
          73 54 45 62 63 -45 36 -66 -19 -20 -4 -7 -14 hvcurveto
          8 61 rlineto
          138 63 -196 hlineto
          -15 -156 33 -23 rlineto
          14 20 17 8 24 hhcurveto
          37 24 -19 -34 -32 -25 -20 -35 -38 -29 19 21 -23 hvcurveto
          endchar
        </CharString>
        <CharString name="five.onum">
          -87 82 270 73 152 85 105 callgsubr
          1 149 callsubr
          81 142 140 -99 62 -120 -44 -31 -8 -16 -34 hvcurveto
          15 176 rlineto
          282 85 -369 hlineto
          -20 -316 50 -31 173 callgsubr
          -85 -86 -67 -52 -85 -79 -51 33 37 -42 hvcurveto
          endchar
        </CharString>
        <CharString name="five.subs">
          -182 57 104 45 -7 callgsubr
          -131 -70 callsubr
        </CharString>
        <CharString name="five.sups">
          428 57 104 45 -7 callgsubr
          479 -70 callsubr
        </CharString>
        <CharString name="fiveeighths">
          -12 51 228 52 -1 57 105 44 50 63 hstemhm
          222 73 10 114 callsubr
          hintmask 0011110000000000
          38 369 rmoveto
          -34 39 39 -17 53 hhcurveto
          73 53 45 62 63 -45 36 -66 -18 -20 -4 -7 -14 hvcurveto
          8 61 rlineto
          138 63 -196 hlineto
          -16 -156 34 -23 rlineto
          14 20 17 8 24 hhcurveto
          36 25 -19 -34 -32 -26 -20 -34 -38 -29 19 21 -23 hvcurveto
          9 -384 -94 callgsubr
          hintmask 1000001001000000
          -44 callgsubr
          hintmask 0100000110000000
          -72 callgsubr
          hintmask 1000001001000000
          -146 -104 rmoveto
          -48 52 -41 76 73 55 39 50 45 -28 21 -35 16 vhcurveto
          4 vlineto
          hintmask 0100000110000000
          -30 callgsubr
          hintmask 1000001001000000
          -33 -16 -32 -23 -41 vvcurveto
          endchar
        </CharString>
        <CharString name="fl">
          -12 81 -48 140 callsubr
          153 79 -12 -20 hstemhm
          111 99 189 99 hintmask 01110110
          111 132 callsubr
          99 80 -99 64 vlineto
          60 22 29 43 133 callgsubr
          -32 hhcurveto
          -107 -46 -68 -101 hvcurveto
          hintmask 10101110
          429 -481 rmoveto
          -2 -9 -4 0 -5 hhcurveto
          -12 -12 10 27 hvcurveto
          603 -99 -597 vlineto
          -78 27 -46 72 25 17 4 5 12 vhcurveto
          endchar
        </CharString>
        <CharString name="four">
          21 -21 170 78 294 96 hstem
          361 93 vstem
          142 248 rmoveto
          153 197 22 32 24 32 20 33 180 callsubr
          -174 vlineto
          188 hmoveto
          -95 390 -111 hlineto
          -305 -401 rlineto
          -67 323 -170 93 170 95 vlineto
          endchar
        </CharString>
        <CharString name="four.dnom">
          70 40 callsubr
          119 -39 callsubr
        </CharString>
        <CharString name="four.numr">
          400 40 callsubr
          449 rmoveto
          49 70 42 63 rlineto
          3 hlineto
          -5 -86 rlineto
          -47 vlineto
          118 hmoveto
          -51 188 -87 hlineto
          -141 -200 rlineto
          -37 161 -70 67 70 51 vlineto
          endchar
        </CharString>
        <CharString name="four.onum">
          91 78 311 95 hstem
          361 93 vstem
          141 169 rmoveto
          155 210 22 33 23 34 20 34 180 callsubr
          -191 vlineto
          188 hmoveto
          -95 406 -111 hlineto
          -305 -417 rlineto
          -67 323 -166 93 166 95 vlineto
          endchar
        </CharString>
        <CharString name="four.subs">
          -100 40 callsubr
          -51 -39 callsubr
        </CharString>
        <CharString name="four.sups">
          510 40 callsubr
          559 -39 callsubr
        </CharString>
        <CharString name="fraction">
          31 593 hstem
          25 550 vstem
          81 31 -94 callgsubr
          endchar
        </CharString>
        <CharString name="g">
          -61 callgsubr
          63 callgsubr
          215 90 -10 95 hintmask 1011101001000000
          -22 callgsubr
          hintmask 1101100100100000
          -67 callsubr
          hintmask 1011101001000000
          -53 callsubr
          hintmask 1101100010100000
          -91 callsubr
          hintmask 1101100101000000
          -62 callsubr
          hintmask 1101010101000000
          -71 callgsubr
          hintmask 1011100011000000
          -53 callgsubr
          hintmask 1011101001000000
          51 callsubr
          hintmask 1101010101000000
          -80 callsubr
          endchar
        </CharString>
        <CharString name="g.a">
          -42 callgsubr
          hstemhm
          56 101 256 99 hintmask 11101100
          -82 callsubr
          hintmask 11011100
          499 -78 vlineto
          hintmask 11101100
          -103 callsubr
          endchar
        </CharString>
        <CharString name="g.supa">
          124 58 83 60 206 61 hstem
          135 76 156 75 vstem
          183 209 rmoveto
          -26 -49 rlineto
          -24 37 48 -12 40 hhcurveto
          101 59 47 81 hvcurveto
          332 -61 vlineto
          -6 -30 rlineto
          -2 hlineto
          25 -28 -29 13 -36 hhcurveto
          -73 -72 -65 -100 -98 55 -64 84 37 34 17 22 24 hvcurveto
          -2 -51 rlineto
          -43 -1 -27 -28 -57 hhcurveto
          -30 -36 8 19 -33 hvcurveto
          109 116 rmoveto
          -50 -31 39 64 63 37 40 46 24 25 -8 -20 24 hvcurveto
          -139 vlineto
          -27 -24 -24 -12 -27 hhcurveto
          endchar
        </CharString>
        <CharString name="g.sups">
          116 48 87 59 52 47 120 55 -43 51 hstemhm
          145 62 -45 70 -68 61 133 67 -13 71 hintmask 1111010001000000
          207 213 rmoveto
          15 9 15 25 13 vhcurveto
          -3 13 15 -2 21 hhcurveto
          54 hlineto
          44 24 -6 -26 -28 -43 -27 -66 -62 -34 19 30 hvcurveto
          -62 -10 rmoveto
          -58 58 -29 91 116 73 51 64 56 -44 23 -85 vhcurveto
          hintmask 1111000110000000
          -68 hlineto
          -41 -20 9 22 13 7 10 13 8 hvcurveto
          -6 18 16 -4 16 hhcurveto
          73 57 39 72 23 -10 20 -12 13 hvcurveto
          77 55 -134 hlineto
          5 -14 -18 3 -19 hhcurveto
          hintmask 1111001010000000
          -72 -61 -43 -74 -38 19 -29 23 -17 hvcurveto
          -2 vlineto
          hintmask 1111000110000000
          -24 -17 -16 -23 -21 vvcurveto
          -27 16 -17 18 -10 vhcurveto
          -2 vlineto
          hintmask 1111010001000000
          -34 -19 -19 -25 -25 vvcurveto
          hintmask 1110101010000000
          150 206 rmoveto
          -35 -28 25 41 40 28 26 35 35 28 -26 -40 -41 -28 -25 -35 hvcurveto
          endchar
        </CharString>
        <CharString name="gbreve">
          -61 callgsubr
          74 58 -58 139 63 callgsubr
          -5 59 151 59 -49 90 -10 95 hintmask 1011100110000100
          -22 callgsubr
          hintmask 1101100101000010
          -67 callsubr
          hintmask 1011100110000100
          -53 callsubr
          hintmask 1101100100100010
          -91 callsubr
          hintmask 1101100101000100
          -62 callsubr
          hintmask 1101010101000100
          -71 callgsubr
          hintmask 1011100100100100
          -53 callgsubr
          hintmask 1011100110000100
          51 callsubr
          hintmask 1101010101000100
          -80 callsubr
          hintmask 1101100100011000
          17 356 8 callsubr
          hintmask 1101101001001000
          -43 -5 -24 -38 -46 hhcurveto
          hintmask 1101100100010100
          -47 -23 38 43 -6 hvcurveto
          -59 hlineto
          hintmask 1101100100011000
          -67 4 39 -72 92 hhcurveto
          endchar
        </CharString>
        <CharString name="gbreve.a">
          -42 callgsubr
          106 138 callgsubr
          56 101 16 60 150 59 -29 99 hintmask 1110011001000000
          -82 callsubr
          hintmask 1101011001000000
          499 -78 vlineto
          hintmask 1110011001000000
          -103 callsubr
          hintmask 1110011110000000
          18 487 8 callsubr
          hintmask 1110101010000000
          54 callgsubr
          hintmask 1110011101000000
          -47 -23 38 43 -5 hvcurveto
          -60 hlineto
          hintmask 1110011110000000
          -67 5 39 -72 91 hhcurveto
          endchar
        </CharString>
        <CharString name="gcaron">
          -92 callsubr
          -26 354 rmoveto
          85 -63 callgsubr
          -64 98 rlineto
          -74 hlineto
          endchar
        </CharString>
        <CharString name="gcaron.a">
          -42 callgsubr
          104 153 hstemhm
          56 101 256 99 hintmask 11101110
          -82 callsubr
          hintmask 11011110
          499 -78 vlineto
          hintmask 11101110
          -103 callsubr
          -24 485 rmoveto
          84 -63 callgsubr
          -63 98 rlineto
          -75 hlineto
          endchar
        </CharString>
        <CharString name="gcircumflex">
          -92 callsubr
          -123 354 rmoveto
          74 84 callgsubr
        </CharString>
        <CharString name="gcircumflex.a">
          -42 callgsubr
          104 153 hstemhm
          56 101 256 99 hintmask 11101110
          -82 callsubr
          hintmask 11011110
          499 -78 vlineto
          hintmask 11101110
          -103 callsubr
          -122 485 rmoveto
          75 hlineto
          63 32 callsubr
        </CharString>
        <CharString name="gdotaccent">
          -61 callgsubr
          81 141 63 callgsubr
          56 148 11 -87 callgsubr
          hintmask 1101101010110000
          17 363 -18 callsubr
        </CharString>
        <CharString name="gdotaccent.a">
          -42 callgsubr
          113 141 hstemhm
          56 101 77 148 31 99 hintmask 11101101
          -82 callsubr
          hintmask 11011101
          499 -78 vlineto
          hintmask 11101101
          -103 callsubr
          hintmask 11101111
          18 494 -79 callsubr
        </CharString>
        <CharString name="germandbls">
          -12 76 -43 -21 642 79 hstemhm
          81 99 103 93 -10 93 14 93 hintmask 01110110
          81 hmoveto
          99 502 hlineto
          91 40 49 68 49 29 -35 -45 vhcurveto
          -83 -83 -30 -89 vvcurveto
          hintmask 10111010
          -137 190 15 -105 vvcurveto
          -38 -27 -31 -49 -36 -31 11 25 -36 vhcurveto
          -37 -69 rlineto
          -27 43 44 -16 56 hhcurveto
          103 63 67 86 hvcurveto
          155 -190 -13 89 65 83 32 99 vvcurveto
          hintmask 10110110
          81 -59 72 -111 -133 -75 -85 -123 vhcurveto
          endchar
        </CharString>
        <CharString name="grave">
          75 callgsubr
          174 195 vstem
          295 573 -10 callgsubr
        </CharString>
        <CharString name="greater">
          44 576 hstem
          396 85 vstem
          481 368 rmoveto
          -377 252 rlineto
          -93 vlineto
          292 -193 rlineto
          -4 vlineto
          -292 -193 rlineto
          -93 vlineto
          377 252 rlineto
          endchar
        </CharString>
        <CharString name="greaterequal">
          0 73 hstem
          418 101 vstem
          81 hmoveto
          120 callgsubr
          438 317 rmoveto
          -438 150 rlineto
          -84 vlineto
          201 -66 136 -41 rlineto
          -4 vlineto
          -136 -42 -201 -66 rlineto
          -84 vlineto
          438 150 rlineto
          endchar
        </CharString>
        <CharString name="guillemotleft">
          45 414 hstem
          72 75 164 75 vstem
          229 45 59 callgsubr
          -157 -158 rlineto
          -98 vlineto
          396 -158 59 callgsubr
          -157 -158 rlineto
          -98 vlineto
          endchar
        </CharString>
        <CharString name="guillemotright">
          45 414 hstem
          214 75 164 75 vstem
          87 84 69 callgsubr
          112 -168 69 callgsubr
          endchar
        </CharString>
        <CharString name="guilsinglleft">
          45 414 hstem
          191 76 vstem
          349 45 59 callgsubr
          -158 -158 rlineto
          -98 vlineto
          endchar
        </CharString>
        <CharString name="guilsinglright">
          45 414 hstem
          333 76 vstem
          206 84 rmoveto
          45 -39 158 158 rlineto
          98 vlineto
          -158 158 -45 -40 127 -167 rlineto
          endchar
        </CharString>
        <CharString name="h">
          21 163 callsubr
          hstem
          88 99 241 99 vstem
          -99 callsubr
          -50 -49 vhcurveto
          6 110 rlineto
          188 -99 vlineto
          endchar
        </CharString>
        <CharString name="h.sups">
          10 callgsubr
          -33 47 -75 -48 -36 -25 -29 -30 vhcurveto
          4 67 rlineto
          122 -74 vlineto
          endchar
        </CharString>
        <CharString name="hbar">
          21 -21 395 86 86 54 -54 142 hstemhm
          88 99 241 99 hintmask 11011100
          187 501 rmoveto
          66 204 vlineto
          hintmask 11101100
          54 -204 vlineto
          hintmask 11011100
          88 -99 vlineto
          hintmask 11101100
          -88 vlineto
          -72 -5 rlineto
          hintmask 11011100
          -49 72 -567 99 317 vlineto
          52 50 37 26 52 hhcurveto
          74 28 -40 -85 hvcurveto
          -270 99 283 vlineto
          127 -52 71 -114 -76 -55 -40 -50 -49 vhcurveto
          endchar
        </CharString>
        <CharString name="hcircumflex">
          21 163 callsubr
          60 114 hstem
          88 99 241 99 vstem
          -99 callsubr
          -50 -49 vhcurveto
          6 110 rlineto
          188 -99 vlineto
          -7 40 rmoveto
          63 66 rlineto
          4 hlineto
          64 -66 rlineto
          78 -71 callsubr
          endchar
        </CharString>
        <CharString name="hungarumlaut">
          572 145 hstem
          195 307 vstem
          195 572 1 callgsubr
        </CharString>
        <CharString name="hyphen">
          15 callgsubr
        </CharString>
        <CharString name="hyphen.a">
          67 callgsubr
        </CharString>
        <CharString name="i">
          21 -21 409 143 callsubr
          hintmask 11101000
          -74 callgsubr
          hintmask 11110000
          5 callgsubr
          endchar
        </CharString>
        <CharString name="i.sups">
          525 59 58 100 hstemhm
          293 107 -89 73 hintmask 10010000
          174 525 rmoveto
          137 -265 73 324 -210 hlineto
          hintmask 11100000
          173 58 rmoveto
          30 23 19 30 30 -23 21 -30 -32 -22 -21 -30 -30 22 -19 32 hvcurveto
          endchar
        </CharString>
        <CharString name="iacute">
          88 callgsubr
          84 153 hstem
          306 99 vstem
          -74 callgsubr
          386 237 -36 callsubr
          74 hlineto
          endchar
        </CharString>
        <CharString name="icircumflex">
          88 callgsubr
          84 153 hstem
          306 99 vstem
          -74 callgsubr
          120 84 rmoveto
          -8 callgsubr
          endchar
        </CharString>
        <CharString name="idieresis">
          88 callgsubr
          95 122 hstemhm
          187 121 -2 99 -19 121 hintmask 11101000
          -74 callgsubr
          hintmask 11110100
          160 95 -90 callgsubr
        </CharString>
        <CharString name="igrave">
          88 callgsubr
          84 153 hstem
          306 99 vstem
          -74 callgsubr
          255 84 159 callsubr
        </CharString>
        <CharString name="imacron">
          88 callgsubr
          109 67 hstemhm
          221 253 -168 99 hintmask 11101000
          -74 callgsubr
          hintmask 11110000
          134 109 23 callsubr
        </CharString>
        <CharString name="infinity">
          143 93 -72 74 166 93 -58 74 hstemhm
          -6 75 462 75 hintmask 01011100
          130 164 rmoveto
          67 44 47 48 30 hvcurveto
          4 hlineto
          hintmask 10011100
          -83 52 48 -33 72 hhcurveto
          92 67 75 119 103 -67 73 -89 -71 -50 -42 -70 -43 hvcurveto
          -4 hlineto
          hintmask 10101100
          54 -30 -43 42 -65 hhcurveto
          -86 -64 -65 -110 hvcurveto
          hintmask 01011100
          -87 61 -71 75 vhcurveto
          hintmask 10011100
          187 179 rmoveto
          67 37 38 29 44 hhcurveto
          59 36 -43 -62 -53 -33 -45 -55 -49 -36 30 77 -41 hvcurveto
          hintmask 01101100
          -173 -105 rmoveto
          -42 -33 38 49 49 28 30 44 37 32 -25 -61 30 hvcurveto
          -52 -24 -32 -28 -40 hhcurveto
          endchar
        </CharString>
        <CharString name="integral">
          -158 77 794 77 hstemhm
          246 91 -49 89 hintmask 11010000
          187 -77 rmoveto
          -11 -74 rlineto
          -4 10 18 -3 22 hhcurveto
          125 26 100 133 hvcurveto
          hintmask 11100000
          153 -40 184 147 vvcurveto
          101 11 53 54 14 12 -1 -3 9 vhcurveto
          11 74 rlineto
          3 -9 -20 4 -21 hhcurveto
          -126 -26 -101 -132 hvcurveto
          hintmask 11010000
          -153 42 -185 -148 vvcurveto
          -101 -11 -51 -55 -14 -12 1 3 -9 vhcurveto
          endchar
        </CharString>
        <CharString name="iogonek">
          -207 63 165 140 callsubr
          93 141 hstemhm
          268 70 -65 148 -115 99 hintmask 11110010
          306 hmoveto
          hintmask 11111000
          29 callsubr
          hintmask 11110010
          124 callgsubr
          hintmask 11110100
          41 173 -79 callsubr
        </CharString>
        <CharString name="iogonek.d">
          -207 63 165 140 callsubr
          hstemhm
          268 70 -32 99 hintmask 11101000
          306 hmoveto
          hintmask 11110000
          29 callsubr
          hintmask 11101000
          124 callgsubr
          endchar
        </CharString>
        <CharString name="itilde">
          88 callgsubr
          89 168 callgsubr
          198 54 54 99 37 54 hintmask 11011100
          -74 callgsubr
          111 171 callgsubr
          hintmask 11101110
          47 callsubr
          hintmask 11011110
          -37 callsubr
          hintmask 11101110
          27 callsubr
          hintmask 11011100
          -30 -29 46 callsubr
        </CharString>
        <CharString name="j">
          -212 80 541 143 callsubr
          hintmask 11001000
          -48 callsubr
          hintmask 11110000
          5 callgsubr
          endchar
        </CharString>
        <CharString name="j.sups">
          123 59 343 59 58 100 hstemhm
          281 107 -89 74 hintmask 11101000
          162 525 rmoveto
          137 -265 hlineto
          -51 -16 -27 -57 -20 -22 5 11 -23 vhcurveto
          -23 -53 rlineto
          -12 25 31 -10 35 hhcurveto
          112 32 62 79 hvcurveto
          320 -211 vlineto
          hintmask 11110000
          173 58 rmoveto
          31 22 19 30 30 -22 21 -31 -31 -23 -21 -30 -30 23 -19 31 hvcurveto
          endchar
        </CharString>
        <CharString name="jcircumflex">
          -212 80 541 80 84 153 hstem
          306 99 vstem
          -48 callsubr
          120 84 rmoveto
          -8 callgsubr
          endchar
        </CharString>
        <CharString name="k">
          21 -16 callgsubr
          240 -20 hstem
          98 99 4 callgsubr
          endchar
        </CharString>
        <CharString name="k.sups">
          260 467 hstem
          181 75 vstem
          181 260 rmoveto
          75 84 hlineto
          63 61 101 -145 rlineto
          81 hlineto
          -138 194 124 130 rlineto
          -82 hlineto
          -147 -151 rlineto
          -2 294 -75 hlineto
          endchar
        </CharString>
        <CharString name="kgreenlandic">
          21 -16 callgsubr
          hstem
          98 99 vstem
          98 hmoveto
          99 128 hlineto
          105 100 166 -228 rlineto
          109 hlineto
          -215 293 191 196 rlineto
          -111 hlineto
          -242 -240 -3 -1 rlineto
          241 -99 vlineto
          endchar
        </CharString>
        <CharString name="l">
          -12 81 561 79 hstem
          236 99 vstem
          -93 callgsubr
          endchar
        </CharString>
        <CharString name="l.sups">
          252 60 356 59 hstem
          270 75 vstem
          192 668 rmoveto
          78 -294 hlineto
          -77 34 -45 76 33 20 6 7 27 vhcurveto
          -14 58 rlineto
          -7 -20 -13 -4 -15 hhcurveto
          -34 -19 16 42 hvcurveto
          357 -153 vlineto
          endchar
        </CharString>
        <CharString name="lacute">
          -12 81 561 79 49 114 hstem
          236 99 vstem
          -93 callgsubr
          336 163 rmoveto
          -110 hlineto
          -86 -114 rlineto
          82 hlineto
          endchar
        </CharString>
        <CharString name="lcaron">
          -12 81 479 215 -133 79 hstemhm
          236 99 68 166 callgsubr
          hintmask 10111000
          -93 callgsubr
          hintmask 11011000
          375 -161 13 callgsubr
        </CharString>
        <CharString name="ldot">
          -12 81 209 141 211 79 hstem
          195 99 78 148 vstem
          34 630 rmoveto
          161 -459 hlineto
          -118 58 -65 109 55 34 13 15 46 vhcurveto
          -24 74 rlineto
          -14 -35 -26 -7 -27 hhcurveto
          -54 -37 28 68 hvcurveto
          544 -260 vlineto
          412 -431 -79 callsubr
        </CharString>
        <CharString name="less">
          44 576 hstem
          119 85 vstem
          119 296 rmoveto
          377 -252 rlineto
          93 vlineto
          -292 193 rlineto
          4 vlineto
          292 193 rlineto
          93 vlineto
          -377 -252 rlineto
          endchar
        </CharString>
        <CharString name="lessequal">
          0 73 hstem
          81 101 vstem
          81 hmoveto
          120 callgsubr
          230 vmoveto
          438 -150 rlineto
          84 vlineto
          -201 66 -136 42 rlineto
          4 vlineto
          136 41 201 66 rlineto
          84 vlineto
          -438 -150 rlineto
          endchar
        </CharString>
        <CharString name="lira">
          0 84 147 55 56 55 171 81 hstemhm
          142 94 -38 86 hintmask 11110100
          215 84 rmoveto
          4 vlineto
          47 41 22 38 64 vvcurveto
          162 55 -168 hlineto
          -4 19 -6 19 -6 18 rrcurveto
          184 55 hlineto
          hintmask 11111000
          -201 hlineto
          -5 19 -4 20 20 45 callgsubr
          -21 5 -21 6 -21 hvcurveto
          -77 -4 rlineto
          -51 96 vlineto
          7 -19 7 -18 5 -19 rrcurveto
          -30 hlineto
          -85 -5 rlineto
          -50 vlineto
          hintmask 11110100
          122 hlineto
          -1 -74 -44 -62 -78 -34 rrcurveto
          -61 461 84 vlineto
          endchar
        </CharString>
        <CharString name="logicalnot">
          294 72 hstem
          442 77 vstem
          81 294 rmoveto
          361 -193 77 265 -438 hlineto
          endchar
        </CharString>
        <CharString name="lozenge">
          -10 83 514 83 hstem
          93 414 vstem
          257 -10 rmoveto
          86 hlineto
          164 340 -164 340 rlineto
          -86 hlineto
          -164 -340 rlineto
          205 -257 rmoveto
          -60 130 -60 127 60 126 60 131 rlineto
          4 hlineto
          60 -131 60 -126 -60 -127 -60 -130 rlineto
          endchar
        </CharString>
        <CharString name="lslash">
          -12 81 561 79 hstem
          236 99 vstem
          515 90 rmoveto
          -14 -35 -27 -7 -26 hhcurveto
          -54 -38 28 68 hvcurveto
          203 vlineto
          159 88 rlineto
          83 vlineto
          -159 -89 rlineto
          259 -259 -79 160 -230 vlineto
          -121 -69 rlineto
          -83 vlineto
          121 70 rlineto
          -147 vlineto
          -118 58 -65 109 56 34 13 15 46 vhcurveto
          endchar
        </CharString>
        <CharString name="m">
          87 callsubr
          hstemhm
          54 94 120 78 120 94 cntrmask 00011100
          hintmask 11011100
          -33 callgsubr
          hintmask 10111100
          -8 64 rlineto
          -76 hlineto
          endchar
        </CharString>
        <CharString name="m.sups">
          529 63 hstem
          126 71 72 60 71 71 vstem
          126 260 rmoveto
          71 227 hlineto
          28 14 12 14 18 hhcurveto
          19 9 -15 -30 hvcurveto
          -224 60 227 vlineto
          28 12 14 14 18 hhcurveto
          19 8 -15 -30 hvcurveto
          -224 71 230 vlineto
          64 -26 38 -46 -37 -23 -23 -32 -15 vhcurveto
          36 -8 -21 19 -31 hhcurveto
          -38 -20 -22 -28 -15 hvcurveto
          -2 hlineto
          -6 42 rlineto
          -57 hlineto
          endchar
        </CharString>
        <CharString name="macron">
          3 callsubr
        </CharString>
        <CharString name="minus">
          15 callgsubr
        </CharString>
        <CharString name="multiply">
          122 415 hstem
          97 406 vstem
          149 122 rmoveto
          151 156 151 -156 52 53 -151 155 151 154 -52 53 -151 -156 -151 156 -52 -53 151 -154 -151 -155 rlineto
          endchar
        </CharString>
        <CharString name="n">
          21 72 callsubr
          241 99 hintmask 11011000
          -99 callsubr
          -51 -49 vhcurveto
          -4 hlineto
          hintmask 10111000
          101 callgsubr
          endchar
        </CharString>
        <CharString name="n.sups">
          10 callgsubr
          -34 47 -74 -49 -35 -25 -30 -30 vhcurveto
          -3 hlineto
          -6 47 rlineto
          -61 hlineto
          endchar
        </CharString>
        <CharString name="nacute">
          87 callsubr
          104 153 hstemhm
          88 99 241 99 hintmask 11011100
          -99 callsubr
          -51 -49 vhcurveto
          -4 hlineto
          hintmask 10111100
          101 callgsubr
          355 237 -36 callsubr
          74 hlineto
          endchar
        </CharString>
        <CharString name="napostrophe">
          87 callsubr
          69 160 hstemhm
          78 76 47 99 211 99 hintmask 11011110
          2 334 rmoveto
          97 60 callgsubr
          -58 -46 -34 -34 -49 -46 32 -31 44 8 9 2 3 8 vhcurveto
          -4 -68 -38 -51 -64 -34 rrcurveto
          319 25 rmoveto
          hintmask 10111110
          -8 74 rlineto
          -82 -489 99 hlineto
          hintmask 11011110
          342 vlineto
          49 46 31 24 46 hhcurveto
          62 26 -38 -82 hvcurveto
          -295 99 308 vlineto
          124 -49 69 -103 -69 -49 -38 -48 -45 vhcurveto
          endchar
        </CharString>
        <CharString name="nbspace.frac">
          endchar
        </CharString>
        <CharString name="ncaron">
          87 callsubr
          104 153 hstemhm
          88 99 241 99 hintmask 11011100
          -99 callsubr
          -51 -49 vhcurveto
          -4 hlineto
          hintmask 10111100
          101 callgsubr
          187 84 -22 callsubr
        </CharString>
        <CharString name="nine">
          -12 81 176 73 254 175 callgsubr
          318 rmoveto
          -80 -45 43 81 81 56 49 69 82 56 -56 -118 13 hvcurveto
          -58 -50 -55 -22 -46 hhcurveto
          -206 -260 157 callsubr
          101 251 174 callsubr
          -82 -125 -132 82 -65 116 60 64 30 50 50 hvcurveto
          -190 -4 -84 -66 -95 hhcurveto
          -47 -45 20 30 -31 hvcurveto
          endchar
        </CharString>
        <CharString name="nine.dnom">
          -12 6 callgsubr
          213 -76 callgsubr
        </CharString>
        <CharString name="nine.numr">
          318 6 callgsubr
          543 rmoveto
          30 19 19 33 30 31 -19 -47 7 vhcurveto
          -21 -23 -21 -9 -23 hhcurveto
          -36 -17 19 28 hvcurveto
          -63 -190 rmoveto
          -20 26 31 -15 40 hhcurveto
          95 62 67 108 95 -59 61 -82 -68 -50 -47 -59 -58 36 -37 66 34 29 12 20 24 hvcurveto
          -67 -5 -31 -38 -55 hhcurveto
          -26 -20 10 13 -17 hvcurveto
          endchar
        </CharString>
        <CharString name="nine.onum">
          -87 82 176 73 266 175 callgsubr
          244 rmoveto
          -80 -45 47 85 85 56 49 69 84 57 -60 -125 11 hvcurveto
          -59 -50 -56 -22 -46 hhcurveto
          -206 -261 157 callsubr
          103 262 174 callsubr
          -83 -128 -135 82 -70 116 60 63 31 49 51 hvcurveto
          -193 -8 -81 -63 -94 hhcurveto
          -47 -45 20 29 -31 hvcurveto
          endchar
        </CharString>
        <CharString name="nine.subs">
          -182 6 callgsubr
          43 -76 callgsubr
        </CharString>
        <CharString name="nine.sups">
          428 6 callgsubr
          653 -76 callgsubr
        </CharString>
        <CharString name="notequal">
          184 73 146 73 hstem
          81 438 vstem
          106 59 rmoveto
          69 hlineto
          75 125 rlineto
          269 73 -228 hlineto
          87 146 rlineto
          141 73 -100 hlineto
          75 125 rlineto
          -69 hlineto
          -75 -125 rlineto
          -269 -73 228 hlineto
          -87 -146 rlineto
          -141 -73 100 hlineto
          endchar
        </CharString>
        <CharString name="ntilde">
          87 callsubr
          109 168 callgsubr
          88 99 -19 130 callsubr
          -38 99 hintmask 1100110010000000
          -99 callsubr
          -51 -49 vhcurveto
          -4 hlineto
          hintmask 1010110010000000
          101 callgsubr
          hintmask 1100101010000000
          80 171 callgsubr
          hintmask 1101010100000000
          47 callsubr
          hintmask 1100110100000000
          -37 callsubr
          hintmask 1101010100000000
          27 callsubr
          hintmask 1100101010000000
          -30 -29 46 callsubr
        </CharString>
        <CharString name="numbersign">
          21 -21 200 66 139 66 hstem
          83 440 vstem
          137 hmoveto
          62 hlineto
          24 200 rlineto
          125 hlineto
          -24 -200 rlineto
          62 hlineto
          24 200 rlineto
          93 66 -86 hlineto
          18 139 rlineto
          88 66 -81 hlineto
          23 179 rlineto
          -61 hlineto
          -24 -179 rlineto
          -124 hlineto
          22 179 rlineto
          -61 hlineto
          -23 -179 rlineto
          -91 -66 83 hlineto
          -17 -139 rlineto
          -86 -66 78 hlineto
          70 66 rmoveto
          17 139 rlineto
          125 hlineto
          -18 -139 rlineto
          endchar
        </CharString>
        <CharString name="o">
          44 callsubr
          hstem
          56 102 284 102 vstem
          -105 callgsubr
          endchar
        </CharString>
        <CharString name="o.sups">
          -26 callsubr
        </CharString>
        <CharString name="oacute">
          44 callsubr
          72 153 hstem
          56 102 284 102 vstem
          -105 callgsubr
          268 482 -36 callsubr
          74 hlineto
          endchar
        </CharString>
        <CharString name="ocircumflex">
          44 callsubr
          72 153 hstem
          56 102 284 102 vstem
          -105 callgsubr
          2 329 rmoveto
          75 hlineto
          63 32 callsubr
        </CharString>
        <CharString name="odieresis">
          44 callsubr
          83 122 hstemhm
          56 102 -18 139 callgsubr
          -18 102 hintmask 11110010
          -105 callgsubr
          hintmask 11101100
          42 340 -90 callgsubr
        </CharString>
        <CharString name="oe">
          -12 80 151 63 138 81 -78 78 hstemhm
          11 91 180 72 161 80 hintmask 11101110
          102 244 rmoveto
          105 32 71 61 53 34 -71 -105 -104 -34 -72 -53 -61 -32 72 104 vhcurveto
          -91 hmoveto
          -162 77 -94 101 61 44 36 67 29 vhcurveto
          -67 28 50 -36 60 hhcurveto
          44 43 19 25 33 hvcurveto
          -34 65 rlineto
          -18 -27 -24 -12 -32 hhcurveto
          -65 -37 59 93 -7 hvcurveto
          236 hlineto
          3 21 1 13 21 vvcurveto
          123 -50 104 -94 -59 -43 -41 -68 -27 vhcurveto
          68 -26 -45 41 -61 hhcurveto
          -100 -79 -94 -163 hvcurveto
          343 38 rmoveto
          hintmask 11011110
          89 7 30 52 53 hhcurveto
          54 17 -66 -75 hvcurveto
          endchar
        </CharString>
        <CharString name="ogonek">
          -13 callsubr
        </CharString>
        <CharString name="ograve">
          44 callsubr
          72 153 hstem
          56 102 284 102 vstem
          -105 callgsubr
          137 329 -10 callgsubr
        </CharString>
        <CharString name="ohorn">
          82 callgsubr
          60 -60 82 hstemhm
          56 102 284 102 -60 79 hintmask 10111000
          300 69 -51 callgsubr
          hintmask 11010100
          -46 callgsubr
          hintmask 10111000
          -86 callsubr
          hintmask 10110100
          59 15 42 34 61 vvcurveto
          26 -58 callgsubr
        </CharString>
        <CharString name="ohungarumlaut">
          44 callsubr
          71 145 hstem
          56 102 284 102 vstem
          -105 callgsubr
          37 328 1 callgsubr
        </CharString>
        <CharString name="omacron">
          44 callsubr
          97 67 hstemhm
          56 102 15 254 15 102 hintmask 11110100
          -105 callgsubr
          hintmask 11111100
          15 354 rmoveto
          254 67 82 callsubr
        </CharString>
        <CharString name="one">
          0 81 444 112 hstem
          271 99 vstem
          370 81 rmoveto
          556 -74 vlineto
          -42 -23 -49 -16 -69 -11 rrcurveto
          -62 135 -444 -177 -81 436 81 vlineto
          endchar
        </CharString>
        <CharString name="one.dnom">
          226 90 callsubr
          hmoveto
          32 callgsubr
        </CharString>
        <CharString name="one.numr">
          556 90 callsubr
          92 callgsubr
          -29 -17 -22 -10 -46 -6 rrcurveto
          -48 81 vlineto
          endchar
        </CharString>
        <CharString name="one.onum">
          0 81 381 113 hstem
          271 99 vstem
          370 81 rmoveto
          494 -74 vlineto
          -42 -23 -49 -16 -69 -11 rrcurveto
          -63 135 -381 -177 -81 436 81 vlineto
          endchar
        </CharString>
        <CharString name="one.subs">
          56 90 callsubr
          -170 rmoveto
          32 callgsubr
        </CharString>
        <CharString name="one.sups">
          666 90 callsubr
          440 rmoveto
          32 callgsubr
        </CharString>
        <CharString name="oneeighth">
          -12 51 228 52 237 117 callgsubr
          76 114 callsubr
          hintmask 1101100000000000
          154 92 callgsubr
          hintmask 0010100000000000
          115 callgsubr
          hintmask 1001110010000000
          -48 81 vlineto
          -73 -525 -94 callgsubr
          -68 callgsubr
        </CharString>
        <CharString name="onehalf">
          0 62 196 61 237 117 callgsubr
          84 244 -86 72 hintmask 11011010
          154 92 callgsubr
          hintmask 11101010
          115 callgsubr
          hintmask 11011100
          -48 81 vlineto
          -73 -525 -94 callgsubr
          -262 -572 rmoveto
          244 62 -124 hlineto
          hintmask 11011010
          60 54 50 46 52 vvcurveto
          66 -45 39 -74 -50 -41 -26 -36 -31 vhcurveto
          45 -39 rlineto
          24 18 24 16 25 hhcurveto
          36 21 -21 -33 -42 -60 -48 -98 -73 hvcurveto
          endchar
        </CharString>
        <CharString name="onequarter">
          0 119 -49 49 133 55 249 117 callgsubr
          234 66 hintmask 10101110
          575 572 rmoveto
          -56 52 -166 -202 38 -35 rlineto
          -237 -57 119 callsubr
          hintmask 10110110
          115 callgsubr
          hintmask 10101110
          -48 81 vlineto
          -129 -473 rmoveto
          56 -52 122 callgsubr
          -38 35 rlineto
          165 -149 rmoveto
          48 70 42 63 rlineto
          4 hlineto
          -5 -86 rlineto
          -47 vlineto
          117 hmoveto
          -51 188 -87 hlineto
          hintmask 01101110
          -141 -201 rlineto
          -36 162 vlineto
          hintmask 10101110
          -70 66 vlineto
          hintmask 01101110
          70 51 vlineto
          endchar
        </CharString>
        <CharString name="onethird">
          -12 57 90 42 85 57 237 117 callgsubr
          240 74 -60 74 hintmask 11101100
          154 92 callgsubr
          hintmask 11110100
          115 callgsubr
          hintmask 11101101
          -48 81 vlineto
          -73 -525 -94 callgsubr
          -272 -533 -46 callsubr
          hintmask 11101110
          22 callsubr
          hintmask 11101101
          89 callsubr
        </CharString>
        <CharString name="ordfeminine">
          -58 callsubr
        </CharString>
        <CharString name="ordfeminine.a">
          -52 callgsubr
        </CharString>
        <CharString name="ordmasculine">
          -26 callsubr
        </CharString>
        <CharString name="oslash">
          -12 79 -58 -21 434 79 0 -20 hstemhm
          56 102 284 102 hintmask 10101100
          421 345 rmoveto
          13 -28 8 -34 -39 vvcurveto
          -105 -55 -72 -87 -35 -30 12 21 -23 vhcurveto
          -33 43 rmoveto
          -14 28 -7 34 39 vvcurveto
          105 55 73 87 35 30 -12 -21 23 vhcurveto
          hintmask 10011100
          147 91 rmoveto
          hintmask 01101100
          -42 33 -49 -58 rlineto
          30 -41 -51 16 -52 hhcurveto
          -128 -116 -94 -163 -73 23 -58 37 -43 hvcurveto
          -51 -61 rlineto
          hintmask 10011100
          42 -33 49 58 rlineto
          -30 41 51 -16 52 hhcurveto
          128 116 94 162 73 -23 59 -38 43 hvcurveto
          endchar
        </CharString>
        <CharString name="otilde">
          44 callsubr
          77 168 callgsubr
          56 102 -7 130 callsubr
          -7 102 hintmask 11011001
          -105 callgsubr
          hintmask 11010101
          -7 334 8 callgsubr
          hintmask 11101010
          47 callsubr
          hintmask 11011010
          -37 callsubr
          hintmask 11101010
          27 callsubr
          hintmask 11010101
          -34 callsubr
          endchar
        </CharString>
        <CharString name="p">
          110 callsubr
          -12 -20 hstemhm
          88 99 255 102 hintmask 11101100
          184 48 rmoveto
          -38 42 53 -22 45 hhcurveto
          115 105 97 167 151 -72 98 -129 -58 -61 -30 -42 -44 hvcurveto
          -3 hlineto
          hintmask 11011100
          -8 60 rlineto
          -81 -689 99 160 hlineto
          161 vmoveto
          hintmask 11101100
          95 callsubr
          -78 hvcurveto
          hintmask 11011100
          -31 -46 14 37 -41 hvcurveto
          endchar
        </CharString>
        <CharString name="p.sups">
          126 callgsubr
          239 288 rmoveto
          -23 29 30 -13 31 hhcurveto
          75 70 64 111 100 -48 65 -86 -38 -37 -19 -24 -29 hvcurveto
          -3 hlineto
          -5 35 rlineto
          -61 -453 74 103 hlineto
          106 vmoveto
          154 vlineto
          25 29 24 84 callsubr
        </CharString>
        <CharString name="paragraph">
          655 -20 hstem
          66 278 54 98 vstem
          398 -80 rmoveto
          98 735 -98 hlineto
          -54 hmoveto
          -42 hlineto
          -133 -103 -56 -160 -151 106 -69 138 hvcurveto
          34 hlineto
          endchar
        </CharString>
        <CharString name="parenleft">
          -176 908 hstem
          201 86 vstem
          422 -176 rmoveto
          55 47 rlineto
          -130 114 -60 128 165 vvcurveto
          165 60 128 130 114 vhcurveto
          -55 47 rlineto
          -137 -109 -84 -153 -192 vvcurveto
          -192 84 -153 137 -109 vhcurveto
          endchar
        </CharString>
        <CharString name="parenleft.dnom">
          -80 481 113 callsubr
          161 -32 callsubr
        </CharString>
        <CharString name="parenleft.numr">
          186 480 113 callsubr
          426 rmoveto
          -101 39 -72 66 -67 vhcurveto
          55 36 rlineto
          -59 61 -26 66 77 vvcurveto
          77 26 66 59 61 vhcurveto
          -55 36 rlineto
          -66 -67 -39 -72 -101 vvcurveto
          endchar
        </CharString>
        <CharString name="parenleft.subs">
          -250 481 113 callsubr
          -9 -32 callsubr
        </CharString>
        <CharString name="parenleft.sups">
          360 481 113 callsubr
          601 -32 callsubr
        </CharString>
        <CharString name="parenright">
          -176 908 hstem
          313 86 vstem
          178 -176 rmoveto
          137 109 84 153 192 vvcurveto
          192 -84 153 -137 109 vhcurveto
          -55 -47 rlineto
          130 -114 60 -128 -165 vvcurveto
          -165 -60 -128 -130 -114 vhcurveto
          endchar
        </CharString>
        <CharString name="parenright.dnom">
          -80 481 114 callgsubr
          161 -31 callgsubr
        </CharString>
        <CharString name="parenright.numr">
          186 480 114 callgsubr
          426 rmoveto
          101 -39 72 -66 67 vhcurveto
          -55 -36 rlineto
          59 -61 26 -66 -77 vvcurveto
          -77 -26 -66 -59 -61 vhcurveto
          55 -36 rlineto
          66 67 39 72 101 vvcurveto
          endchar
        </CharString>
        <CharString name="parenright.subs">
          -250 481 114 callgsubr
          -9 -31 callgsubr
        </CharString>
        <CharString name="parenright.sups">
          360 481 114 callgsubr
          601 -31 callgsubr
        </CharString>
        <CharString name="partialdiff">
          -12 81 262 78 182 81 hstem
          72 93 267 95 vstem
          268 69 rmoveto
          -55 -48 45 73 85 45 59 88 42 44 -19 -52 40 hvcurveto
          -125 -21 -59 -66 -76 hhcurveto
          -77 472 rmoveto
          32 31 37 18 41 hhcurveto
          85 47 -69 -154 hvcurveto
          -10 0 -9 -9 vvcurveto
          44 -39 -52 25 -53 hhcurveto
          -132 -84 -94 -134 -120 86 -73 100 160 109 152 226 200 -81 106 -135 -65 -55 -26 -43 -45 hvcurveto
          endchar
        </CharString>
        <CharString name="percent">
          -12 57 217 57 -1 57 217 57 hstemhm
          26 71 140 72 -18 72 140 71 hintmask 10111101
          167 145 callsubr
          -59 -60 -103 -104 59 -64 82 hvcurveto
          57 vmoveto
          -38 -32 35 76 77 32 29 38 39 31 -29 -77 -76 -31 -35 -39 hvcurveto
          -86 -344 rmoveto
          122 callgsubr
          -37 35 -184 -185 rlineto
          494 541 rmoveto
          -166 -202 37 -35 184 185 rlineto
          hintmask 11000011
          -142 -584 rmoveto
          82 59 63 104 104 -59 60 -82 -82 -60 -60 -104 -104 60 -63 82 hvcurveto
          57 vmoveto
          -39 -31 35 75 77 31 30 39 38 32 -30 -77 -75 -32 -35 -38 hvcurveto
          endchar
        </CharString>
        <CharString name="period">
          -12 99 callgsubr
          81 rmoveto
          -11 callsubr
        </CharString>
        <CharString name="period.dnom">
          -8 91 callsubr
          43 14 callsubr
        </CharString>
        <CharString name="period.numr">
          257 91 callsubr
          309 rmoveto
          -31 21 -21 29 29 21 21 31 30 -21 22 -29 -29 -21 -22 -30 vhcurveto
          endchar
        </CharString>
        <CharString name="period.subs">
          -178 91 callsubr
          -127 14 callsubr
        </CharString>
        <CharString name="period.sups">
          432 91 callsubr
          483 14 callsubr
        </CharString>
        <CharString name="periodcentered">
          256 99 callgsubr
          349 rmoveto
          -11 callsubr
        </CharString>
        <CharString name="perthousand">
          -12 47 166 47 141 47 166 47 hstem
          44 62 115 62 35 62 115 62 vstem
          163 389 12 callsubr
          386 75 rmoveto
          -447 -201 15 -34 460 167 rlineto
          -414 -455 12 callsubr
          275 -47 rmoveto
          70 49 49 83 81 -49 47 -70 -70 -50 -47 -81 -83 50 -49 70 hvcurveto
          47 vmoveto
          -33 -25 26 59 57 25 24 33 32 25 -23 -58 -59 -25 -26 -32 hvcurveto
          endchar
        </CharString>
        <CharString name="peseta">
          21 -21 237 66 104 65 99 66 hstem
          111 94 vstem
          205 303 rmoveto
          104 196 vlineto
          -68 -12 -49 -36 -83 hhcurveto
          268 vmoveto
          83 50 -28 -71 11 hvcurveto
          -196 99 hlineto
          353 -99 rmoveto
          -63 hlineto
          120 -14 -93 45 -120 hhcurveto
          -157 -166 hlineto
          -74 -4 rlineto
          -60 74 -407 94 237 63 vlineto
          118 95 54 116 14 hvcurveto
          63 hlineto
          endchar
        </CharString>
        <CharString name="pi">
          -12 81 339 81 hstem
          128 92 163 93 vstem
          383 123 rmoveto
          -86 31 -49 86 26 19 6 6 15 vhcurveto
          -13 74 rlineto
          -3 -12 -7 -2 -7 hhcurveto
          -30 -15 14 34 40 1 147 6 104 hvcurveto
          84 81 -463 hlineto
          -71 -5 rlineto
          -76 95 vlineto
          -125 -5 -142 -16 -141 vhcurveto
          99 -6 rlineto
          9 139 5 144 131 vvcurveto
          168 hlineto
          -1 -100 -4 -141 -44 vvcurveto
          endchar
        </CharString>
        <CharString name="plus">
          294 72 hstem
          262 76 vstem
          262 101 rmoveto
          76 193 181 72 -181 193 -76 -193 -181 -72 181 hlineto
          endchar
        </CharString>
        <CharString name="plusminus">
          0 73 228 73 hstem
          262 76 vstem
          262 135 rmoveto
          76 166 181 73 -181 185 -76 -185 -181 -73 181 hlineto
          -181 -301 rmoveto
          120 callgsubr
          endchar
        </CharString>
        <CharString name="product">
          550 87 hstem
          45 100 309 101 vstem
          45 -120 rmoveto
          100 670 309 -670 101 757 -510 hlineto
          endchar
        </CharString>
        <CharString name="q">
          110 callsubr
          -12 -20 17 callsubr
          hintmask 11101100
          56 166 callsubr
          84 -94 127 56 55 30 40 40 vhcurveto
          -5 -85 rlineto
          -173 99 vlineto
          hintmask 11011100
          689 -78 vlineto
          hintmask 11101100
          -9 -53 rlineto
          -3 hlineto
          43 -44 -45 22 -58 hhcurveto
          -75 callsubr
          endchar
        </CharString>
        <CharString name="q.sups">
          16 callsubr
          135 421 rmoveto
          -107 55 -62 84 37 34 18 22 26 vhcurveto
          -4 -53 rlineto
          -108 75 453 -60 vlineto
          -5 -32 rlineto
          -3 hlineto
          27 -29 -27 13 14 callgsubr
        </CharString>
        <CharString name="question">
          -12 167 -146 -21 613 81 hstemhm
          206 160 21 96 hintmask 01111000
          236 238 rmoveto
          87 hlineto
          -16 126 176 29 131 vvcurveto
          99 -78 59 -112 -78 -63 -35 -49 -46 vhcurveto
          57 -52 rlineto
          33 35 40 22 48 hhcurveto
          65 36 -37 -51 -95 -174 -39 23 -141 hvcurveto
          hintmask 01110000
          -30 -166 178 callsubr
          hintmask 10110000
          50 -36 33 -44 vhcurveto
          hintmask 01110000
          -44 -36 -33 -50 hvcurveto
          endchar
        </CharString>
        <CharString name="questiondown">
          -193 81 446 167 0 -20 hstemhm
          118 96 21 160 hintmask 10111000
          365 250 rmoveto
          -87 hlineto
          16 -126 -176 -29 -131 vvcurveto
          -98 78 -59 112 78 63 35 48 46 vhcurveto
          -57 52 rlineto
          -33 -35 -40 -21 -48 hhcurveto
          -65 -36 37 51 95 174 39 -23 140 hvcurveto
          hintmask 10101000
          30 167 176 callgsubr
          hintmask 11001000
          -51 36 -32 44 vhcurveto
          hintmask 10101000
          44 36 32 51 hvcurveto
          endchar
        </CharString>
        <CharString name="quotedbl">
          340 346 hstem
          119 123 116 123 vstem
          148 340 98 callgsubr
          267 -228 98 callgsubr
          endchar
        </CharString>
        <CharString name="quotedblbase">
          -24 145 callgsubr
          -227 rmoveto
          97 137 callgsubr
          -58 -47 79 callsubr
          269 -55 rmoveto
          97 137 callgsubr
          -59 -46 79 callsubr
          endchar
        </CharString>
        <CharString name="quotedblleft">
          334 161 hstem
          83 77 162 77 vstem
          235 698 rmoveto
          -97 -48 -55 -83 -102 vvcurveto
          -82 39 -49 59 46 33 34 50 45 -31 32 -45 -8 -8 -2 -3 -8 vhcurveto
          4 68 38 50 63 34 rrcurveto
          209 56 rmoveto
          -97 -48 -55 -83 -102 vvcurveto
          -82 39 -49 58 47 33 34 50 45 -32 32 -44 -8 -8 -2 -3 -8 vhcurveto
          4 68 38 50 63 34 rrcurveto
          endchar
        </CharString>
        <CharString name="quotedblright">
          538 145 callgsubr
          334 rmoveto
          97 60 callgsubr
          -58 -47 78 callgsubr
          269 -56 rmoveto
          97 60 callgsubr
          -59 -46 78 callgsubr
          endchar
        </CharString>
        <CharString name="quoteleft">
          -5 callgsubr
        </CharString>
        <CharString name="quoteright">
          -5 callsubr
        </CharString>
        <CharString name="quotesinglbase">
          -24 160 hstem
          319 76 vstem
          244 -227 rmoveto
          96 137 callgsubr
          -58 -46 96 callsubr
          -64 -34 rrcurveto
          endchar
        </CharString>
        <CharString name="quotesingle">
          340 346 hstem
          238.5 123 vstem
          268 340 rmoveto
          64 hlineto
          28 228 3 118 rlineto
          -126 hlineto
          3 -118 rlineto
          endchar
        </CharString>
        <CharString name="r">
          21 73 callgsubr
          138 99 hintmask 11001000
          -64 callsubr
          hintmask 10101000
          22 85 rlineto
          hintmask 11001000
          -44 callsubr
          hintmask 10011000
          -8 -26 callgsubr
          -82 hlineto
          endchar
        </CharString>
        <CharString name="r.sups">
          526 66 hstem
          236 74 vstem
          236 260 rmoveto
          74 179 hlineto
          64 30 42 23 39 hhcurveto
          25 13 -3 -7 22 hvcurveto
          15 62 rlineto
          9 -20 -18 5 -26 hhcurveto
          -51 -46 -30 -52 -29 hvcurveto
          -3 hlineto
          -6 74 rlineto
          -61 hlineto
          endchar
        </CharString>
        <CharString name="racute">
          -35 callgsubr
          329 237 -36 callsubr
          74 hlineto
          endchar
        </CharString>
        <CharString name="radical">
          -91 104 hstem
          55 532 vstem
          199 414 rmoveto
          -144 -62 21 -51 72 31 150 -423 rlineto
          72 hlineto
          217 911 rlineto
          -69 hlineto
          -173 -739 -5 -22 -4 -23 -4 -23 rlinecurve
          -4 hlineto
          -5 23 -6 23 -7 22 rrcurveto
          endchar
        </CharString>
        <CharString name="rcaron">
          -35 callgsubr
          161 84 -22 callsubr
        </CharString>
        <CharString name="registered">
          317 40 127 35 63 36 56 40 hstem
          109 43 73 45 65 48 64 43 vstem
          300 317 rmoveto
          104 86 81 117 117 -86 82 -104 -105 -86 -82 -117 -117 86 -81 105 hvcurveto
          40 vmoveto
          -84 -64 64 94 94 64 65 84 84 63 -65 -94 -94 -63 -64 -84 hvcurveto
          -75 60 rmoveto
          45 67 38 hlineto
          34 -67 rlineto
          49 hlineto
          -45 81 rlineto
          23 9 14 22 24 vvcurveto
          47 -36 18 -43 vhcurveto
          -79 hlineto
          45 -99 rmoveto
          63 26 vlineto
          28 11 -13 -19 -20 -15 -11 -26 hvcurveto
          endchar
        </CharString>
        <CharString name="ring">
          544 41 107 41 hstem
          202 52 92 52 vstem
          300 -49 callsubr
        </CharString>
        <CharString name="s">
          -12 76 361 76 hstem
          96 100 234 -101 callsubr
          endchar
        </CharString>
        <CharString name="s.sups">
          252 56 228 56 hstem
          176 74 130 73 vstem
          158 298 rmoveto
          -26 37 55 -20 56 hhcurveto
          95 52 45 55 61 -63 20 -58 17 hvcurveto
          -42 13 -40 11 25 vvcurveto
          21 20 16 46 35 28 -11 -17 28 vhcurveto
          34 45 rlineto
          20 -32 -43 19 -51 hhcurveto
          -87 -52 -41 -55 -55 63 -23 55 -17 hvcurveto
          43 -13 43 -12 -28 vvcurveto
          -23 -23 -17 -49 -47 -35 13 24 -34 vhcurveto
          endchar
        </CharString>
        <CharString name="sacute">
          -12 76 361 76 72 153 hstem
          96 100 234 -101 callsubr
          317 598 -36 callsubr
          75 hlineto
          endchar
        </CharString>
        <CharString name="scaron">
          -12 76 361 76 72 153 hstem
          96 100 234 -101 callsubr
          150 445 rmoveto
          84 -63 callgsubr
          -64 98 rlineto
          -74 hlineto
          endchar
        </CharString>
        <CharString name="scircumflex">
          -12 76 361 76 72 153 hstem
          96 100 234 -101 callsubr
          52 445 10 callsubr
        </CharString>
        <CharString name="section">
          -69 75 604 76 hstemhm
          86 85 -27 90 129 90 -24 85 hintmask 11100100
          370 197 rmoveto
          -83 48 -116 19 81 vvcurveto
          37 22 25 38 19 vhcurveto
          83 -47 115 -20 -83 vvcurveto
          -39 -20 -22 -39 -18 vhcurveto
          98 429 rmoveto
          32 -40 -57 28 -69 hhcurveto
          hintmask 11010100
          -103 -55 -62 -74 -35 12 -26 19 -21 hvcurveto
          hintmask 11101000
          -53 -28 -36 -45 -56 -186 277 20 -105 vvcurveto
          -34 -28 -28 -51 -52 -38 19 33 -34 vhcurveto
          -59 -53 rlineto
          -47 43 67 -27 73 hhcurveto
          103 66 60 82 33 -11 26 -17 21 hvcurveto
          hintmask 11010100
          55 30 34 38 63 183 -280 -12 98 vvcurveto
          32 22 25 51 44 37 -20 -27 33 vhcurveto
          endchar
        </CharString>
        <CharString name="semicolon">
          5 165 167 186 hstemhm
          210 180 -70 84 hintmask 11100000
          300 337 rmoveto
          51 39 39 54 54 -39 39 -51 -51 -39 -39 -54 -54 39 -39 51 hvcurveto
          -80 -551 rmoveto
          hintmask 11010000
          19 callgsubr
        </CharString>
        <CharString name="seven">
          21 -21 553 84 hstem
          217 102 vstem
          217 hmoveto
          102 hlineto
          11 250 37 137 167 189 rrcurveto
          61 -466 -84 355 vlineto
          -142 -176 -53 -143 -11 -234 rrcurveto
          endchar
        </CharString>
        <CharString name="seven.dnom">
          245 26 callgsubr
          hmoveto
          -52 callsubr
        </CharString>
        <CharString name="seven.numr">
          575 26 callgsubr
          330 rmoveto
          -52 callsubr
        </CharString>
        <CharString name="seven.onum">
          490 85 hstem
          217 102 vstem
          217 -75 rmoveto
          102 hlineto
          11 255 37 143 167 191 rrcurveto
          61 -466 -85 355 vlineto
          -143 -178 -52 -149 -11 -238 rrcurveto
          endchar
        </CharString>
        <CharString name="seven.subs">
          75 26 callgsubr
          -170 rmoveto
          -52 callsubr
        </CharString>
        <CharString name="seven.sups">
          685 26 callgsubr
          440 rmoveto
          -52 callsubr
        </CharString>
        <CharString name="seveneighths">
          -12 51 228 52 256 62 hstemhm
          49 248 -182 77 113 114 callsubr
          hintmask 1110101010000000
          115 330 rmoveto
          77 hlineto
          hintmask 0011000000000000
          6 106 17 68 82 92 rrcurveto
          41 -248 -62 vlineto
          hintmask 0010100000000000
          164 hlineto
          hintmask 1110101010000000
          -63 -82 -29 -63 -6 -100 rrcurveto
          -34 -299 -94 callgsubr
          hintmask 1000010010000000
          -68 callgsubr
        </CharString>
        <CharString name="six">
          -12 77 254 73 176 81 hstem
          73 92 279 93 vstem
          319 34 callsubr
          -16 callsubr
        </CharString>
        <CharString name="six.dnom">
          -12 57 96 48 73 57 hstem
          172 69 122 68 vstem
          311 45 -20 callsubr
          -30 15 -41 -41 callgsubr
        </CharString>
        <CharString name="six.numr">
          318 40 callgsubr
          375 rmoveto
          -30 -31 19 47 -8 hvcurveto
          22 23 21 8 24 hhcurveto
          36 17 -19 -28 -29 -19 -20 -33 hvcurveto
          115 239 rmoveto
          21 -26 -31 14 -40 hhcurveto
          -95 -62 -67 -108 -95 59 -61 82 68 50 48 59 57 -36 37 -66 -34 -30 -12 -21 -24 hvcurveto
          68 5 32 38 55 hhcurveto
          26 20 -10 -13 17 hvcurveto
          endchar
        </CharString>
        <CharString name="six.onum">
          -12 77 254 73 176 81 -70 -20 hstemhm
          74 92 279 93 hintmask 11011100
          320 34 callsubr
          hintmask 11101100
          -16 callsubr
        </CharString>
        <CharString name="six.subs">
          -182 40 callgsubr
          -125 -20 callsubr
          -31 15 -40 -41 callgsubr
        </CharString>
        <CharString name="six.sups">
          428 40 callgsubr
          485 -20 callsubr
          -31 15 -40 -41 callgsubr
        </CharString>
        <CharString name="slash">
          -160 870 hstem
          93 414 vstem
          507 710 rmoveto
          -86 hlineto
          -328 -870 rlineto
          86 hlineto
          endchar
        </CharString>
        <CharString name="slash.frac">
          31 593 hstem
          25 550 vstem
          81 31 -94 callgsubr
          endchar
        </CharString>
        <CharString name="space">
          endchar
        </CharString>
        <CharString name="space.frac">
          endchar
        </CharString>
        <CharString name="sterling">
          0 84 197 65 222 81 hstemhm
          142 94 -38 86 hintmask 11101000
          215 84 rmoveto
          4 vlineto
          47 41 22 39 65 vvcurveto
          17 -2 16 -3 15 vhcurveto
          167 65 hlineto
          hintmask 11110000
          -185 hlineto
          -12 37 -13 36 37 45 callgsubr
          -38 15 -38 14 -38 hvcurveto
          -96 -4 rlineto
          -61 vlineto
          hintmask 11101000
          117 hlineto
          4 -16 2 -15 -16 vvcurveto
          -75 -44 -64 -79 -34 vhcurveto
          -61 461 84 vlineto
          endchar
        </CharString>
        <CharString name="summation">
          -120 84 589 84 hstemhm
          67 124 -113 123 hintmask 11100000
          67 -58 rmoveto
          -62 484 84 -360 4 vlineto
          210 291 rlineto
          hintmask 11010000
          -200 290 rlineto
          4 323 84 -446 -62 vlineto
          219 -317 rlineto
          endchar
        </CharString>
        <CharString name="t">
          -12 80 341 80 hstem
          198 99 vstem
          -96 callsubr
          endchar
        </CharString>
        <CharString name="t.sups">
          252 59 214 59 hstem
          235 75 vstem
          235 390 rmoveto
          -83 34 -55 99 36 34 8 11 26 vhcurveto
          -14 53 rlineto
          -8 -19 -21 -5 -24 hhcurveto
          -56 -20 25 54 hvcurveto
          135 140 59 -140 88 -62 vlineto
          -9 -88 -79 -3 rlineto
          -56 75 vlineto
          endchar
        </CharString>
        <CharString name="tcaron">
          -12 80 341 80 59 76 hstem
          198 99 95 166 callgsubr
          vstem
          -96 callsubr
          242 139 13 callgsubr
        </CharString>
        <CharString name="thorn">
          110 callsubr
          208 -20 hstem
          88 99 255 102 vstem
          187 -40 rmoveto
          -2 88 rlineto
          -36 41 50 -24 48 hhcurveto
          113 107 97 167 151 -74 98 -129 -55 -57 -28 -42 -45 hvcurveto
          3 84 rlineto
          194 -99 -909 99 vlineto
          321 vmoveto
          231 vlineto
          46 44 44 20 40 hhcurveto
          89 38 -65 -102 -116 -61 -65 -76 -32 -46 14 37 -40 hvcurveto
          endchar
        </CharString>
        <CharString name="three">
          -12 81 224 74 203 79 141 callsubr
          78 142 callgsubr
          68 115 86 -71 55 170 callsubr
          48 74 vvcurveto
          105 -92 60 125 callgsubr
          26 57 hhcurveto
          73 49 -36 -57 -63 -55 -47 170 callgsubr
          -47 -70 -66 -62 -41 -82 -76 -58 34 39 -42 hvcurveto
          endchar
        </CharString>
        <CharString name="three.dnom">
          -12 5 callsubr
          39 -80 callgsubr
        </CharString>
        <CharString name="three.numr">
          318 5 callsubr
          369 -39 callgsubr
          53 -46 32 -63 -48 -45 -18 -26 -27 vhcurveto
          34 -44 rlineto
          18 20 28 13 23 hhcurveto
          35 16 -15 -24 -29 -25 -17 -51 hvcurveto
          hintmask 11101000
          -42 vlineto
          61 29 -16 -31 -29 -24 -14 -33 -34 -34 19 21 -21 hvcurveto
          endchar
        </CharString>
        <CharString name="three.onum">
          -87 82 230 74 208 80 141 callsubr
          3 142 callgsubr
          70 118 89 -71 54 170 callsubr
          50 76 vvcurveto
          105 -92 62 125 callgsubr
          25 57 hhcurveto
          73 49 -37 -58 -65 -55 -48 170 callgsubr
          -46 -73 -69 -62 -42 -82 -76 -58 33 39 -42 hvcurveto
          endchar
        </CharString>
        <CharString name="three.subs">
          -182 5 callsubr
          -131 -80 callgsubr
        </CharString>
        <CharString name="three.sups">
          428 5 callsubr
          479 -80 callgsubr
        </CharString>
        <CharString name="threeeighths">
          -12 51 228 52 -1 57 90 42 85 57 hstemhm
          204 73 -59 73 14 114 callsubr
          hintmask 0010001000000000
          38 369 rmoveto
          -34 37 48 -17 45 hhcurveto
          69 54 36 59 40 -25 26 -44 11 hvcurveto
          hintmask 0001110000000000
          39 14 16 22 38 vvcurveto
          53 -46 32 -63 -49 -44 -18 -26 -27 vhcurveto
          33 -44 rlineto
          18 20 28 13 24 hhcurveto
          34 17 -15 -24 -29 -26 -17 -50 hvcurveto
          hintmask 0011001000000000
          -42 vlineto
          61 29 -16 -31 -29 -25 -14 -32 -34 -34 19 21 -21 hvcurveto
          9 -384 -94 callgsubr
          hintmask 1000000100100000
          -44 callgsubr
          hintmask 0100000011000000
          -72 callgsubr
          hintmask 1000000100100000
          -146 -104 rmoveto
          -48 52 -41 76 73 55 39 50 45 -28 21 -35 16 vhcurveto
          4 vlineto
          hintmask 0100000011000000
          -30 callgsubr
          hintmask 1000000100100000
          -33 -16 -32 -23 -41 vvcurveto
          endchar
        </CharString>
        <CharString name="threequarters">
          0 119 -49 49 133 55 11 57 90 42 85 57 hstemhm
          203 74 -60 74 172 67 hintmask 1001111010000000
          595 572 rmoveto
          -55 52 -166 -202 37 -35 rlineto
          -365 -304 rmoveto
          55 -52 122 callgsubr
          -37 35 rlineto
          -149 293 rmoveto
          18 20 28 13 24 hhcurveto
          34 16 -15 -24 -29 -25 -17 -51 hvcurveto
          hintmask 1001110110000000
          -42 vlineto
          61 29 -16 -31 -29 -24 -14 -33 -33 -35 19 21 -20 hvcurveto
          -34 -46 rlineto
          -34 36 48 -17 45 hhcurveto
          69 55 36 59 40 -25 26 -45 11 hvcurveto
          hintmask 1011111010000000
          40 14 16 22 38 vvcurveto
          53 -47 32 -62 -49 -44 -18 -26 -27 vhcurveto
          326 -486 rmoveto
          49 70 42 63 rlineto
          3 hlineto
          -5 -86 rlineto
          -47 vlineto
          67 188 rmoveto
          -87 hlineto
          hintmask 0101111010000000
          -141 -201 rlineto
          -36 161 vlineto
          hintmask 1001111010000000
          -70 67 vlineto
          hintmask 0101111010000000
          70 50 vlineto
          hintmask 1001111010000000
          49 -50 vlineto
          endchar
        </CharString>
        <CharString name="tilde">
          -36 callgsubr
        </CharString>
        <CharString name="trademark">
          422 67 110 77 -63 63 hstemhm
          85 69 134 62 171 63 hintmask 10111100
          288 365 rmoveto
          62 126 hlineto
          144 callsubr
          hintmask 11011100
          38 callgsubr
          rlineto
          hintmask 10111100
          -42 109 rlineto
          -79 hlineto
          -203 -311 rmoveto
          69 248 91 63 -252 -63 92 hlineto
          endchar
        </CharString>
        <CharString name="triagdn">
          27 502 hstem
          34 532 vstem
          299 27 rmoveto
          4 hlineto
          263 500 rlineto
          2 -532 -2 vlineto
          endchar
        </CharString>
        <CharString name="triagup">
          34 503 hstem
          34 532 vstem
          34 34 83 callsubr
        </CharString>
        <CharString name="two">
          0 84 486 79 179 callgsubr
          -195 hlineto
          -36 -43 -3 -3 -38 hvcurveto
          160 145 118 118 117 vvcurveto
          115 -83 76 -129 -92 -63 -37 -61 -60 vhcurveto
          56 -55 rlineto
          40 39 50 34 57 hhcurveto
          87 43 -47 -70 -103 -119 -111 -208 -181 hvcurveto
          endchar
        </CharString>
        <CharString name="two.dnom">
          0 62 196 61 hstemhm
          180 244 -87 73 hintmask 11100000
          180 hmoveto
          69 callsubr
          52 vvcurveto
          66 -46 39 -73 -50 -41 -26 -36 -31 vhcurveto
          45 -9 callsubr
          endchar
        </CharString>
        <CharString name="two.numr">
          330 39 callgsubr
          330 rmoveto
          69 callsubr
          53 vvcurveto
          66 -46 38 -73 -50 -38 callgsubr
          endchar
        </CharString>
        <CharString name="two.onum">
          0 84 423 80 179 callgsubr
          -176 hlineto
          -36 -44 -3 -3 -38 hvcurveto
          158 114 102 98 101 vvcurveto
          119 -83 77 -129 -92 -63 -38 -60 -60 vhcurveto
          56 -55 rlineto
          40 39 50 33 57 hhcurveto
          87 43 -48 -73 -82 -117 -107 -210 -139 hvcurveto
          endchar
        </CharString>
        <CharString name="two.subs">
          -170 39 callgsubr
          -170 rmoveto
          69 callsubr
          52 vvcurveto
          66 -46 39 -73 -50 -38 callgsubr
          endchar
        </CharString>
        <CharString name="two.sups">
          440 39 callgsubr
          440 rmoveto
          69 callsubr
          52 vvcurveto
          66 -46 39 -73 -50 -38 callgsubr
          endchar
        </CharString>
        <CharString name="twothirds">
          -12 57 90 42 85 57 11 62 196 61 hstemhm
          48 244 -87 73 191 74 -60 74 hintmask 1101110010000000
          48 330 rmoveto
          244 62 -125 hlineto
          hintmask 1101101010000000
          60 54 51 46 53 vvcurveto
          66 -46 38 -74 -49 -38 callgsubr
          33 -340 -94 callgsubr
          -272 -533 -46 callsubr
          hintmask 1111101100000000
          22 callsubr
          hintmask 1101101010000000
          89 callsubr
        </CharString>
        <CharString name="u">
          -12 112 callgsubr
          239 99 hintmask 10111000
          510 489 rmoveto
          -99 -105 callsubr
          hintmask 01111000
          22 callgsubr
          endchar
        </CharString>
        <CharString name="u.sups">
          252 64 hstem
          155 74 143 74 vstem
          446 584 rmoveto
          -74 -222 hlineto
          -34 -29 -22 -12 -32 hhcurveto
          -44 -16 23 51 hvcurveto
          194 -74 -204 vlineto
          -81 34 -47 73 49 36 24 33 30 vhcurveto
          2 hlineto
          7 -49 rlineto
          60 hlineto
          endchar
        </CharString>
        <CharString name="uacute">
          -63 callsubr
          104 153 43 callsubr
          hintmask 10111100
          510 489 rmoveto
          -99 -105 callsubr
          hintmask 01111100
          22 callgsubr
          -89 134 callgsubr
        </CharString>
        <CharString name="ubreve">
          -63 callsubr
          106 138 callgsubr
          73 99 -11 59 150 59 -18 99 hintmask 1010110010000000
          510 489 rmoveto
          -99 -105 callsubr
          hintmask 0110101010000000
          22 callgsubr
          -215 575 rmoveto
          hintmask 1010110100000000
          91 39 72 67 168 callsubr
          hintmask 1011010100000000
          54 callgsubr
          hintmask 1010101010000000
          12 callgsubr
          hintmask 0110101010000000
          37 callsubr
        </CharString>
        <CharString name="ucircumflex">
          -63 callsubr
          104 153 43 callsubr
          hintmask 10111100
          510 489 rmoveto
          -99 -105 callsubr
          hintmask 01111100
          22 callgsubr
          -355 573 rmoveto
          75 hlineto
          63 32 callsubr
        </CharString>
        <CharString name="udieresis">
          -63 callsubr
          115 122 hstemhm
          73 99 -37 139 callgsubr
          -44 99 hintmask 10111001
          510 489 rmoveto
          -99 -105 callsubr
          hintmask 01110101
          22 callgsubr
          -315 584 -51 callsubr
          hintmask 10111010
          200 hmoveto
          35 25 26 130 callgsubr
          -35 -36 33 callsubr
          36 hvcurveto
          endchar
        </CharString>
        <CharString name="ugrave">
          -63 callsubr
          104 153 43 callsubr
          hintmask 10111100
          510 489 rmoveto
          -99 -105 callsubr
          hintmask 01111100
          22 callgsubr
          -220 573 -10 callgsubr
        </CharString>
        <CharString name="uhorn">
          -12 112 callgsubr
          239 99 15 79 hintmask 10111100
          510 597 0 callgsubr
          hintmask 10111000
          -31 -105 callsubr
          hintmask 01111000
          63 callsubr
          hintmask 10111100
          48 14 46 31 63 vvcurveto
          26 -58 callgsubr
        </CharString>
        <CharString name="uhungarumlaut">
          -63 callsubr
          103 145 43 callsubr
          hintmask 10111100
          510 489 rmoveto
          -99 -105 callsubr
          hintmask 01111100
          22 callgsubr
          -320 572 rmoveto
          64 hlineto
          89 145 rlineto
          -83 hlineto
          83 -145 7 callsubr
          endchar
        </CharString>
        <CharString name="umacron">
          -63 callsubr
          129 67 hstemhm
          73 99 -4 253 -10 99 hintmask 10111010
          510 489 rmoveto
          -99 -105 callsubr
          hintmask 01111010
          22 callgsubr
          hintmask 10110100
          -342 598 23 callsubr
        </CharString>
        <CharString name="underscore">
          -146 81 hstem
          60 480 vstem
          60 -65 rmoveto
          -81 480 81 vlineto
          endchar
        </CharString>
        <CharString name="uni00470303">
          61 callgsubr
          42 153 callgsubr
          51 103 26 53 196 53 -37 92 hintmask 1110010010000000
          -102 callsubr
          hintmask 1111010100000000
          341 383 rmoveto
          hintmask 1110110100000000
          34 callgsubr
          -53 hlineto
          hintmask 1111010100000000
          27 callgsubr
          hintmask 1110111010000000
          -85 callgsubr
          hintmask 1111010100000000
          68 callgsubr
        </CharString>
        <CharString name="uni00670303">
          -61 callgsubr
          77 64 -10 64 63 callgsubr
          -20 55 180 90 -80 54 16 95 hintmask 1011100110001000
          -22 callgsubr
          hintmask 1101100101000010
          -67 callsubr
          hintmask 1011100110001000
          -53 callsubr
          hintmask 1101100100100010
          -91 callsubr
          hintmask 1101100101001000
          -62 callsubr
          hintmask 1101010101001000
          -71 callgsubr
          hintmask 1011100100101000
          -53 callgsubr
          hintmask 1011100110001000
          51 callsubr
          hintmask 1101010101001000
          -80 callsubr
          hintmask 1101100100011000
          -133 359 rmoveto
          55 9 callgsubr
          hintmask 1101101001000100
          31 28 -54 49 hhcurveto
          hintmask 1101100101000100
          -37 callsubr
          hintmask 1101101001000100
          -37 -7 -13 -17 -21 hhcurveto
          hintmask 1101100100011000
          -31 -29 54 -48 hhcurveto
          -56 -32 -46 -72 -8 hvcurveto
          endchar
        </CharString>
        <CharString name="uni00670303.a">
          -42 callgsubr
          109 168 callgsubr
          56 101 2 130 callsubr
          -44 99 hintmask 1110011001000000
          -82 callsubr
          hintmask 1101011001000000
          499 -78 vlineto
          hintmask 1110011001000000
          -103 callsubr
          hintmask 1110010101000000
          -131 490 8 callgsubr
          hintmask 1110101010000000
          47 callsubr
          hintmask 1110011010000000
          -37 callsubr
          hintmask 1110101010000000
          27 callsubr
          hintmask 1110010101000000
          -34 callsubr
          endchar
        </CharString>
        <CharString name="uni00A0">
          endchar
        </CharString>
        <CharString name="uni00AD">
          15 callgsubr
        </CharString>
        <CharString name="uni00AD.a">
          67 callgsubr
        </CharString>
        <CharString name="uni00B5">
          -12 81 -78 82 hstemhm
          73 99 239 94 hintmask 01110000
          73 -190 rmoveto
          100 hlineto
          -5 79 -1 52 -1 96 rrcurveto
          -38 24 37 -8 42 hhcurveto
          58 53 34 70 38 hvcurveto
          3 hlineto
          hintmask 10110000
          -73 10 25 -34 55 hhcurveto
          24 17 4 5 13 hvcurveto
          -13 74 rlineto
          -2 -9 -4 0 -5 hhcurveto
          -17 -12 10 27 108 3 147 3 128 hvcurveto
          -100 -314 hlineto
          hintmask 01110000
          -84 -47 -44 -18 -48 hhcurveto
          -69 -31 41 85 hvcurveto
          290 -99 vlineto
          endchar
        </CharString>
        <CharString name="uni0122">
          -220 46 162 64 callgsubr
          hstem
          51 103 179 74 38 92 vstem
          -102 callsubr
          253 -372 rmoveto
          -20 -64 callgsubr
          72 28 61 vvcurveto
          118 callsubr
          endchar
        </CharString>
        <CharString name="uni0123">
          -61 callgsubr
          169 45 0 -20 63 callgsubr
          56 75 84 90 -10 95 hintmask 1011100110011000
          -22 callgsubr
          hintmask 1101100101010100
          -67 callsubr
          hintmask 1011100110011000
          -53 callsubr
          hintmask 1101100100110100
          -91 callsubr
          hintmask 1101100101011000
          -62 callsubr
          hintmask 1101010101011000
          -71 callgsubr
          hintmask 1011100100111000
          -53 callgsubr
          hintmask 1011100110011000
          51 callsubr
          hintmask 1101011001011000
          -80 callsubr
          46 323 rmoveto
          21 19 callsubr
          -73 -28 -60 vvcurveto
          -46 30 -23 73 -10 vhcurveto
          endchar
        </CharString>
        <CharString name="uni0123.a">
          -42 callgsubr
          201 45 0 -20 hstemhm
          56 101 77 75 104 99 hintmask 1110011110000000
          -82 callsubr
          hintmask 1101011110000000
          499 -78 vlineto
          hintmask 1110011110000000
          -103 callsubr
          48 454 rmoveto
          hintmask 1110101110000000
          20 19 callsubr
          -73 -28 -60 vvcurveto
          hintmask 1110011110000000
          -46 30 -23 74 -10 vhcurveto
          endchar
        </CharString>
        <CharString name="uni012C">
          64 callsubr
          51 54 -14 callsubr
          -92 callgsubr
          210 622 rmoveto
          82 38 53 60 7 hvcurveto
          -58 hlineto
          -57 callgsubr
          endchar
        </CharString>
        <CharString name="uni012D">
          88 callgsubr
          86 138 callgsubr
          213 59 34 99 18 59 hintmask 11011100
          -74 callgsubr
          260 86 rmoveto
          hintmask 11011110
          91 39 72 67 5 hvcurveto
          -59 hlineto
          hintmask 11101110
          -43 -6 -23 -38 -47 hhcurveto
          hintmask 11011100
          12 callgsubr
          37 callsubr
        </CharString>
        <CharString name="uni0136">
          151 callsubr
          655 -20 hstem
          90 101 141 74 3 callgsubr
          213 -701 25 callsubr
        </CharString>
        <CharString name="uni0137">
          151 callsubr
          489 -20 240 -20 hstem
          98 99 133 75 4 callgsubr
          204 -755 rmoveto
          -21 -82 callgsubr
          -73 10 vhcurveto
          endchar
        </CharString>
        <CharString name="uni013B">
          -220 46 174 84 571 -20 hstem
          127 99 114 75 vstem
          -41 callsubr
          185 -701 rmoveto
          -21 -82 callgsubr
          -73 10 vhcurveto
          endchar
        </CharString>
        <CharString name="uni013C">
          -220 46 162 81 561 79 hstem
          236 99 31 75 vstem
          -93 callgsubr
          261 -755 rmoveto
          -20 -82 callgsubr
          -74 10 vhcurveto
          endchar
        </CharString>
        <CharString name="uni0145">
          -220 46 174 59 callsubr
          124 74 54 95 hintmask 10101101
          55 callgsubr
          hintmask 10110101
          -83 callgsubr
          hintmask 11001111
          -70 callgsubr
          190 -701 rmoveto
          -20 -43 rlineto
          -25 callsubr
          118 callsubr
          endchar
        </CharString>
        <CharString name="uni0146">
          -220 46 195 72 callsubr
          122 75 44 99 hintmask 11101010
          -99 callsubr
          -51 -49 vhcurveto
          -4 hlineto
          hintmask 11011110
          101 callgsubr
          192 -535 rmoveto
          -20 -82 callgsubr
          -74 10 vhcurveto
          endchar
        </CharString>
        <CharString name="uni014E">
          21 callsubr
          39 54 hstem
          137 callsubr
          vstem
          -106 callsubr
          631 vmoveto
          82 38 53 60 7 hvcurveto
          -58 hlineto
          -57 callgsubr
          endchar
        </CharString>
        <CharString name="uni014F">
          44 callsubr
          74 138 callgsubr
          56 102 8 59 150 59 8 102 hintmask 11011001
          -105 callgsubr
          hintmask 11011111
          142 331 8 callsubr
          hintmask 11101011
          54 callgsubr
          hintmask 11011101
          12 callgsubr
          hintmask 11011111
          37 callsubr
        </CharString>
</ttFont>
